<?xml version="1.0" encoding="utf-8"?>
<!-- Generator: Adobe Illustrator 16.0.4, SVG Export Plug-In . SVG Version: 6.00 Build 0)  -->
<!DOCTYPE svg PUBLIC "-//W3C//DTD SVG 1.1//EN" "http://www.w3.org/Graphics/SVG/1.1/DTD/svg11.dtd">
<svg version="1.1" xmlns="http://www.w3.org/2000/svg" xmlns:xlink="http://www.w3.org/1999/xlink" x="0px" y="0px"
	 width="139.333px" height="139.333px" viewBox="0 0 139.333 139.333" enable-background="new 0 0 139.333 139.333"
	 xml:space="preserve">
<g id="Layer_1">
	<text transform="matrix(1 0 0 1 -150.7007 25.3813)"><tspan x="0" y="0" font-family="'MyriadPro-Regular'" font-size="12">F</tspan><tspan x="5.304" y="0" font-family="'MyriadPro-Regular'" font-size="12">a</tspan><tspan x="11.088" y="0" font-family="'MyriadPro-Regular'" font-size="12">r</tspan><tspan x="15.06" y="0" font-family="'MyriadPro-Regular'" font-size="12">m </tspan><tspan x="27.612" y="0" font-family="'MyriadPro-Regular'" font-size="12">P</tspan><tspan x="33.696" y="0" font-family="'MyriadPro-Regular'" font-size="12">ond </tspan><tspan x="56.256" y="0" font-family="'MyriadPro-Regular'" font-size="12">C</tspan><tspan x="63.192" y="0" font-family="'MyriadPro-Regular'" font-size="12">i</tspan><tspan x="66" y="0" font-family="'MyriadPro-Regular'" font-size="12">r</tspan><tspan x="69.804" y="0" font-family="'MyriadPro-Regular'" font-size="12">cle</tspan></text>
	<text transform="matrix(1 0 0 1 -150.7007 126.1812)"><tspan x="0" y="0" font-family="'MyriadPro-Regular'" font-size="12">B</tspan><tspan x="6.552" y="0" font-family="'MyriadPro-Regular'" font-size="12">eebe Lake </tspan><tspan x="59.59" y="0" font-family="'MyriadPro-Regular'" font-size="12">R</tspan><tspan x="66.095" y="0" font-family="'MyriadPro-Regular'" font-size="12">ede</tspan><tspan x="84.886" y="0" font-family="'MyriadPro-Regular'" font-size="12">v</tspan><tspan x="90.538" y="0" font-family="'MyriadPro-Regular'" font-size="12">elopme</tspan><tspan x="128.817" y="0" font-family="'MyriadPro-Regular'" font-size="12">n</tspan><tspan x="135.44" y="0" font-family="'MyriadPro-Regular'" font-size="12">t</tspan></text>
	<text transform="matrix(1 0 0 1 -150.7007 270.1812)"><tspan x="0" y="0" font-family="'MyriadPro-Regular'" font-size="12">C</tspan><tspan x="6.84" y="0" font-family="'MyriadPro-Regular'" font-size="12">o</tspan><tspan x="13.428" y="0" font-family="'MyriadPro-Regular'" font-size="12">r</tspan><tspan x="17.4" y="0" font-family="'MyriadPro-Regular'" font-size="12">nell</tspan><tspan x="35.735" y="0" font-family="'MyriadPro-Regular'" font-size="12">T</tspan><tspan x="40.847" y="0" font-family="'MyriadPro-Regular'" font-size="12">ech </tspan><tspan x="61.439" y="0" font-family="'MyriadPro-Regular'" font-size="12">I</tspan><tspan x="64.427" y="0" font-family="'MyriadPro-Regular'" font-size="12">niti</tspan><tspan x="80.675" y="0" font-family="'MyriadPro-Regular'" font-size="12">a</tspan><tspan x="86.411" y="0" font-family="'MyriadPro-Regular'" font-size="12">ti</tspan><tspan x="93.191" y="0" font-family="'MyriadPro-Regular'" font-size="12">v</tspan><tspan x="98.843" y="0" font-family="'MyriadPro-Regular'" font-size="12">es</tspan></text>
	<text transform="matrix(1 0 0 1 -150.7007 399.7817)"><tspan x="0" y="0" font-family="'MyriadPro-Regular'" font-size="12">R</tspan><tspan x="6.504" y="0" font-family="'MyriadPro-Regular'" font-size="12">e</tspan><tspan x="12.852" y="0" font-family="'MyriadPro-Regular'" font-size="12">-</tspan><tspan x="16.536" y="0" font-family="'MyriadPro-Regular'" font-size="12">I</tspan><tspan x="19.512" y="0" font-family="'MyriadPro-Regular'" font-size="12">nn</tspan><tspan x="32.833" y="0" font-family="'MyriadPro-Regular'" font-size="12">o</tspan><tspan x="39.348" y="0" font-family="'MyriadPro-Regular'" font-size="12">v</tspan><tspan x="45.072" y="0" font-family="'MyriadPro-Regular'" font-size="12">a</tspan><tspan x="50.82" y="0" font-family="'MyriadPro-Regular'" font-size="12">tions</tspan></text>
	<text transform="matrix(1 0 0 1 193.665 6.6699)"><tspan x="0" y="0" font-family="'MyriadPro-Bold'" font-size="8">CUSD </tspan><tspan x="21.721" y="0" font-family="'MyriadPro-Bold'" font-size="8">C</tspan><tspan x="26.337" y="0" font-family="'MyriadPro-Bold'" font-size="8">olors</tspan></text>
	<text transform="matrix(1 0 0 1 193.665 16.27)"><tspan x="0" y="0" font-family="'MyriadPro-Regular'" font-size="8">Da</tspan><tspan x="9.184" y="0" font-family="'MyriadPro-Regular'" font-size="8">r</tspan><tspan x="11.832" y="0" font-family="'MyriadPro-Regular'" font-size="8">k Blue</tspan></text>
	<text transform="matrix(1 0 0 1 193.665 25.8696)" font-family="'MyriadPro-Regular'" font-size="8">#197999</text>
	<text transform="matrix(1 0 0 1 193.665 45.0698)"><tspan x="0" y="0" font-family="'MyriadPro-Regular'" font-size="8">G</tspan><tspan x="5.168" y="0" font-family="'MyriadPro-Regular'" font-size="8">r</tspan><tspan x="7.712" y="0" font-family="'MyriadPro-Regular'" font-size="8">een</tspan></text>
	<text transform="matrix(1 0 0 1 193.665 54.6699)" font-family="'MyriadPro-Regular'" font-size="8">#47AE48</text>
	<text transform="matrix(1 0 0 1 193.665 73.8696)"><tspan x="0" y="0" font-family="'MyriadPro-Regular'" font-size="8">Da</tspan><tspan x="9.184" y="0" font-family="'MyriadPro-Regular'" font-size="8">r</tspan><tspan x="11.832" y="0" font-family="'MyriadPro-Regular'" font-size="8">k G</tspan><tspan x="22.448" y="0" font-family="'MyriadPro-Regular'" font-size="8">r</tspan><tspan x="24.984" y="0" font-family="'MyriadPro-Regular'" font-size="8">een</tspan></text>
	<text transform="matrix(1 0 0 1 193.665 83.4697)" font-family="'MyriadPro-Regular'" font-size="8">#249145</text>
	<text transform="matrix(1 0 0 1 193.665 179.4697)"><tspan x="0" y="0" font-family="'MyriadPro-Regular'" font-size="8">Lig</tspan><tspan x="10.119" y="0" font-family="'MyriadPro-Regular'" font-size="8">h</tspan><tspan x="14.526" y="0" font-family="'MyriadPro-Regular'" font-size="8">t G</tspan><tspan x="24.039" y="0" font-family="'MyriadPro-Regular'" font-size="8">r</tspan><tspan x="26.615" y="0" font-family="'MyriadPro-Regular'" font-size="8">a</tspan><tspan x="30.415" y="0" font-family="'MyriadPro-Regular'" font-size="8">y</tspan></text>
	<text transform="matrix(1 0 0 1 193.665 189.0698)" font-family="'MyriadPro-Regular'" font-size="8">#D0D1D2</text>
	<text transform="matrix(1 0 0 1 193.665 208.27)"><tspan x="0" y="0" font-family="'MyriadPro-Regular'" font-size="8">Lig</tspan><tspan x="10.119" y="0" font-family="'MyriadPro-Regular'" font-size="8">h</tspan><tspan x="14.526" y="0" font-family="'MyriadPro-Regular'" font-size="8">t G</tspan><tspan x="24.039" y="0" font-family="'MyriadPro-Regular'" font-size="8">r</tspan><tspan x="26.584" y="0" font-family="'MyriadPro-Regular'" font-size="8">een</tspan></text>
	<text transform="matrix(1 0 0 1 193.665 217.8696)" font-family="'MyriadPro-Regular'" font-size="8">#258C43</text>
	<text transform="matrix(1 0 0 1 193.665 237.0698)"><tspan x="0" y="0" font-family="'MyriadPro-Regular'" font-size="8">B</tspan><tspan x="4.336" y="0" font-family="'MyriadPro-Regular'" font-size="8">r</tspan><tspan x="6.88" y="0" font-family="'MyriadPro-Regular'" font-size="8">o</tspan><tspan x="11.224" y="0" font-family="'MyriadPro-Regular'" font-size="8">wn</tspan></text>
	<text transform="matrix(1 0 0 1 193.665 246.6699)" font-family="'MyriadPro-Regular'" font-size="8">#B18C69</text>
	<text transform="matrix(1 0 0 1 193.665 294.6699)"><tspan x="0" y="0" font-family="'MyriadPro-Regular'" font-size="8">G</tspan><tspan x="5.168" y="0" font-family="'MyriadPro-Regular'" font-size="8">r</tspan><tspan x="7.744" y="0" font-family="'MyriadPro-Regular'" font-size="8">a</tspan><tspan x="11.545" y="0" font-family="'MyriadPro-Regular'" font-size="8">y</tspan></text>
	<text transform="matrix(1 0 0 1 193.665 304.27)" font-family="'MyriadPro-Regular'" font-size="8">#626366</text>
	<text transform="matrix(1 0 0 1 193.665 323.4697)" font-family="'MyriadPro-Regular'" font-size="8"> </text>
	<text transform="matrix(1 0 0 1 193.665 429.0698)"><tspan x="0" y="0" font-family="'MyriadPro-Regular'" font-size="8">R</tspan><tspan x="4.336" y="0" font-family="'MyriadPro-Regular'" font-size="8">ed</tspan></text>
	<text transform="matrix(1 0 0 1 193.665 438.6694)" font-family="'MyriadPro-Regular'" font-size="8">#C13842</text>
	<text transform="matrix(1 0 0 1 193.665 457.8696)"><tspan x="0" y="0" font-family="'MyriadPro-Regular'" font-size="8">G</tspan><tspan x="5.168" y="0" font-family="'MyriadPro-Regular'" font-size="8">r</tspan><tspan x="7.744" y="0" font-family="'MyriadPro-Regular'" font-size="8">a</tspan><tspan x="11.545" y="0" font-family="'MyriadPro-Regular'" font-size="8">y</tspan></text>
	<text transform="matrix(1 0 0 1 193.665 467.4702)" font-family="'MyriadPro-Regular'" font-size="8">#5A5B5D</text>
	<rect x="166.585" y="11.67" fill="#1A7999" width="25.414" height="4.667"/>
	<rect x="257.918" y="175.247" fill="#66B2DE" width="25.414" height="4.667"/>
	<rect x="166.585" y="39.67" fill="#47AE48" width="25.414" height="4.667"/>
	<rect x="166.585" y="67.342" fill="#249145" width="25.414" height="4.667"/>
	<rect x="166.585" y="175.247" fill="#D1D2D3" width="25.414" height="4.667"/>
	<g>
		<defs>
			<rect id="SVGID_1_" x="-184.67" y="-4.664" width="612.001" height="792"/>
		</defs>
		<clipPath id="SVGID_2_">
			<use xlink:href="#SVGID_1_"  overflow="visible"/>
		</clipPath>
		<g opacity="0.7" clip-path="url(#SVGID_2_)">
			<g>
				<defs>
					<rect id="SVGID_3_" x="165.253" y="209.428" width="25.414" height="4.667"/>
				</defs>
				<clipPath id="SVGID_4_">
					<use xlink:href="#SVGID_3_"  overflow="visible"/>
				</clipPath>
				<rect x="165.253" y="209.428" clip-path="url(#SVGID_4_)" fill="#278D44" width="25.414" height="4.667"/>
			</g>
		</g>
	</g>
	<rect x="166.585" y="230.669" fill="#B18D6A" width="25.414" height="4.667"/>
	<rect x="166.585" y="291.944" fill="#636466" width="25.414" height="4.667"/>
	<rect x="166.585" y="422.372" fill="#C23942" width="25.414" height="4.667"/>
	<rect x="166.585" y="453.714" fill="#5B5B5E" width="25.414" height="4.667"/>
	<text transform="matrix(1 0 0 1 288.6641 179.5376)" font-family="'MyriadPro-Regular'" font-size="8">Blue</text>
	<text transform="matrix(1 0 0 1 288.6641 189.1377)" font-family="'MyriadPro-Regular'" font-size="8">#65B1DD</text>
	<path fill="#B18D6A" d="M94.298,200.987c-3.087,0.162-14.865-0.812-17.952-1.381c-3.086-0.568-13.078-4.224-13.078-4.224
		s-4.224-1.299-7.392-0.917s-3.005-0.626-5.766-0.626c-2.763,0-10.398,3.005-13.566,2.274s-5.361-3.412-7.798-3.412
		c-0.443,0-0.934,0.115-1.441,0.299c-2.168,5.208-3.367,10.92-3.367,16.913h88.083c0-2.697-0.244-5.337-0.708-7.9
		C103.594,200.628,97.115,200.839,94.298,200.987"/>
	<path fill="#66B2DE" d="M67.98,253.955c24.324,0,44.042-19.718,44.042-44.042H23.938C23.938,234.237,43.657,253.955,67.98,253.955"
		/>
	<path fill="#D1D2D3" d="M36.544,196.113c3.168,0.731,10.804-2.274,13.566-2.274c2.761,0,2.599,1.008,5.767,0.626
		c3.167-0.382,7.392,0.917,7.392,0.917s9.991,3.656,13.078,4.224c3.086,0.569,14.864,1.543,17.951,1.381
		c2.818-0.148,9.296-0.359,17.016,1.026c-3.723-20.553-21.707-36.142-43.334-36.142c-18.331,0-34.043,11.2-40.675,27.129
		c0.508-0.184,0.998-0.299,1.441-0.299C31.183,192.701,33.376,195.382,36.544,196.113"/>
	<g opacity="0.7">
		<g>
			<defs>
				<rect id="SVGID_5_" x="24.426" y="179.125" width="85.463" height="30.788"/>
			</defs>
			<clipPath id="SVGID_6_">
				<use xlink:href="#SVGID_5_"  overflow="visible"/>
			</clipPath>
			<polygon clip-path="url(#SVGID_6_)" fill="#278D44" points="24.426,209.913 35.066,183.93 46.049,209.913 57.032,183.93 
				68.525,209.913 75.566,193.884 82.431,209.913 84.147,209.913 96.503,179.125 109.889,209.913 			"/>
		</g>
	</g>
	<path fill-rule="evenodd" clip-rule="evenodd" fill="#C23942" d="M74.817,421.793l5.301-0.453v27.598h-4.601
		c-3.589-5.559-7.659-11.16-11.433-17.006v16.946h-5.406v-27.529h4.736c1.669,2.362,9.427,14.026,11.403,17.036V421.793z"/>
	<polyline fill-rule="evenodd" clip-rule="evenodd" fill="#C03741" points="153.245,455.292 153.245,483.29 147.466,483.29 
		147.466,471.705 138.372,471.705 138.372,483.317 132.513,483.317 132.513,455.359 138.319,455.359 138.319,466.571 
		147.339,466.571 147.339,455.425 	"/>
	<polygon fill-rule="evenodd" clip-rule="evenodd" fill="#C23942" points="102.468,437.627 91.282,437.627 91.282,444.374 
		104.308,444.374 104.308,448.86 86.005,448.86 86.005,421.368 104.254,421.368 104.254,426.241 91.309,426.241 91.309,432.614 
		102.468,432.614 	"/>
	<polygon fill-rule="evenodd" clip-rule="evenodd" fill="#C23942" points="102.468,472.307 91.282,472.307 91.282,479.054 
		104.308,479.054 104.308,483.54 86.005,483.54 86.005,456.048 104.254,456.048 104.254,460.921 91.309,460.921 91.309,467.294 
		102.468,467.294 	"/>
	<path fill-rule="evenodd" clip-rule="evenodd" fill="#C03741" d="M0.31,440.821L5,442.573c-0.411,1.676-3.141,6.645-9.829,6.687
		c-3.398,0.02-5.894-1.867-7.194-3.255c-1.7-1.812-2.834-5.439-2.834-11.162c0-6.459,0.917-7.963,1.927-9.633
		c1.473-2.436,5.359-4.363,8.101-4.363c6.687,0,9.418,5.439,10.028,6.912l-4.889,1.641c0,0-0.774-3.986-5.139-3.986
		c-1.654,0-2.046,0.279-3.04,0.906c-2.284,1.441-1.639,6.654-1.614,8.713c0.038,3.047,0.085,7.307,1.065,8.307
		c1.063,1.082,2.167,1.488,3.589,1.523C-3.924,444.885-0.634,444.362,0.31,440.821"/>
	<path fill-rule="evenodd" clip-rule="evenodd" fill="#C03741" d="M123.989,475.563l4.689,1.752
		c-0.411,1.675-3.141,6.645-9.829,6.686c-3.399,0.021-5.895-1.866-7.195-3.254c-1.7-1.813-2.833-5.439-2.833-11.162
		c0-6.459,0.917-7.963,1.927-9.633c1.473-2.437,5.359-4.363,8.101-4.363c6.686,0,9.417,5.439,10.028,6.912l-4.889,1.64
		c0,0-0.774-3.986-5.139-3.986c-1.655,0-2.047,0.279-3.04,0.906c-2.285,1.441-1.64,6.654-1.615,8.713
		c0.038,3.047,0.086,7.308,1.066,8.307c1.062,1.082,2.167,1.488,3.589,1.523C119.754,479.626,123.045,479.103,123.989,475.563"/>
	<polygon fill-rule="evenodd" clip-rule="evenodd" fill="#C03741" points="72.187,483.352 66.751,483.352 66.751,460.749 
		58.663,460.749 58.663,455.522 80.251,455.522 80.251,460.701 72.187,460.732 	"/>
	<path fill-rule="evenodd" clip-rule="evenodd" fill="#C23942" d="M109.836,448.872v-27.496c0,0,5.741-0.061,5.782,0
		c0.038,0.055,0,22.957,0,22.957h13.152v4.539H109.836z"/>
	<path fill-rule="evenodd" clip-rule="evenodd" fill="#C23942" d="M134.542,448.872v-27.496c0,0,5.74-0.061,5.781,0
		c0.039,0.055,0,22.957,0,22.957h13.152v4.539H134.542z"/>
	<path fill-rule="evenodd" clip-rule="evenodd" fill="#5A5B5D" d="M-12.567,460.403v23.361h-2.108
		c-0.019-0.027-0.172-0.142-0.172-0.256c-0.011-9.204-0.01-18.409-0.01-27.688h2.424c4.991,7.808,9.99,15.625,14.988,23.444
		c0.045-0.017,0.109-0.025,0.149-0.062c0.05-0.047,0.113-0.115,0.113-0.176c0.005-7.698,0.005-15.396,0.005-23.188h2.22v27.93H2.825
		c-4.941-7.736-9.986-15.637-15.031-23.534C-12.326,460.291-12.447,460.346-12.567,460.403"/>
	<path fill="#5B5B5E" d="M52.358,475.737l-0.065,0.312c-0.051,0.242-1.335,6.055-7.572,5.864c-3.475-0.1-6.201-2.139-6.945-5.194
		c-0.234-0.965-0.611-4.844-0.626-6.918c-0.001-0.208-0.005-0.447-0.008-0.711c-0.031-2.021-0.08-5.404,0.618-7.046
		c1.494-3.512,4.41-4.763,6.641-4.763c2.301,0,6.341,0.706,7.555,5.438l0.052,0.204l1.975-0.341l-0.058-0.236
		c-0.033-0.136-0.832-3.351-2.759-5.002c-1.532-1.312-3.657-2.033-5.985-2.033c-1.934,0-3.858,0.509-5.417,1.434
		c-4.814,2.856-4.814,9.227-4.814,13.032c0,2.926,0.392,5.181,0.604,6.392c0.046,0.268,0.085,0.491,0.111,0.669
		c0.719,4.589,4.017,7.221,9.049,7.221c7.956,0,9.296-7.081,9.309-7.152l0.027-0.153L52.358,475.737z"/>
	<path fill-rule="evenodd" clip-rule="evenodd" fill="#5B5B5E" d="M19.931,469.855l8.041-14.034h2.014L20.9,471.447V483.8h-1.76
		v-12.354l-8.887-15.607h1.979C14.778,460.509,19.931,469.855,19.931,469.855"/>
	<path fill-rule="evenodd" clip-rule="evenodd" fill="#C23942" d="M48.28,436.85c2.521-1.279,4.985-3.057,5.318-6.207
		c0.516-4.884-2.132-7.588-6.827-9.271H33.682v27.597l5.445-0.032v-10.815h4.046c1.845,3.675,3.73,6.974,5.664,10.825h5.416
		C52.635,444.65,49.95,440.926,48.28,436.85 M48.549,430.329c-0.25,2.252-2.929,3.266-4.11,3.22l-5.259-0.015v-7.642h6.419
		C47.519,426.675,48.851,427.608,48.549,430.329"/>
	<path fill-rule="evenodd" clip-rule="evenodd" fill="#C03741" d="M28.643,435.422c0.098-2.072,0.413-5.68-0.458-8.027
		c-0.555-1.498-1.848-3.318-3.97-4.879c-0.934-0.686-3.828-1.217-5.748-1.217c-1.41,0-4.089,0.343-6.126,1.701
		c-2.21,1.473-3.167,3.931-3.683,5.836c-0.512,1.889-0.373,4.609-0.373,6.586c0,1.97,0.316,5.993,1.13,8.12
		c0.878,2.293,4.108,5.636,8.994,5.636c5.774,0,8.244-3.311,9.321-5.636C28.741,441.359,28.56,437.155,28.643,435.422
		 M18.467,444.532c-4.653,0-4.673-3.869-4.742-5.732c-0.097-2.639-0.077-5.285-0.001-7.926c0.09-3.113,2.012-5.153,4.743-5.153
		c4.583,0,5.207,2.606,5.212,5.153c0.005,2.416,0.024,5.801,0.024,7.926C23.703,441.359,22.71,444.532,18.467,444.532"/>
	<rect x="-184.67" y="-4.664" fill="none" width="612.001" height="792"/>
	<polygon fill="#249145" points="81.594,76.758 14.559,92.781 14.559,74.469 81.594,29.67 	"/>
	<g>
		<defs>
			<rect id="SVGID_7_" x="-184.67" y="-4.664" width="612.001" height="792"/>
		</defs>
		<clipPath id="SVGID_8_">
			<use xlink:href="#SVGID_7_"  overflow="visible"/>
		</clipPath>
		<path clip-path="url(#SVGID_8_)" fill="#1A7999" d="M87.166,110.016c-1.843,0.724-4.939,0.995-6.88,0.604L17.692,98.001
			c-1.941-0.391-1.953-1.089-0.028-1.549l62.649-15c1.925-0.461,4.963-0.141,6.75,0.711l28.819,13.753
			c1.787,0.853,1.742,2.142-0.102,2.866L87.166,110.016z"/>
		<polygon clip-path="url(#SVGID_8_)" fill="#47AE48" points="118.735,92.781 86.035,76.758 86.035,29.67 118.735,74.142 		"/>
	</g>
	<rect x="-184.67" y="-4.664" fill="none" width="612.001" height="792"/>
</g>
<g id="Layer_2">
	<path fill="#636466" d="M67.288,373.118c0,0-6.984-1.335-6.728-2.773c0.47-2.634,10.929,4.442,12.528-1.184
		c1.666-5.862-16.362-6.141-15.505-8.984c0.731-2.424,17.922,7.959,19.411,2.208c1.445-5.582-19.302-6.851-18.375-9.837
		c0.614-1.979,13.654,4.008,17.692,4.001c2.496-0.004,5.512-3.618,2.198-6.27c-4.918-3.934-11.075-4.141-14.884-5.631
		s-5.817-3.431-7.277-6.508c-2.951-6.222-3.262-11.678-5.798-18.027c-4.087-10.232-9.009-12.788-11.122-22.284
		c-1.836-8.255,2.427-21.724,22.627-23.183c14.835-1.071,26.667,6.448,28.452,18.051c1.315,8.544-3.86,18.387-6.853,22.667
		c-5.885,8.415-6.778,12.727-7.275,15.708s-1.226,8.682-3.047,10.173s-6.062,0.64-8.24-2.161c-1.877-2.414,0.056-6.606,1.249-11.081
		c1.063-3.987,1.857-7.658,1.234-9.459c-0.949-2.742-4.697-3.87-7.32-5.099c-3.92-1.836-4.449-3.8-2.961-4.441
		c1.729-0.745,3.497,2.524,6.646,1.825c2.819-0.626,0.378-8.09,3.479-8.223c2.649-0.113,1.193,7.143,4.006,8.012
		c3.849,1.189,4.59-5.468,6.747-3.795c4.174,3.236-7.45,15.477-7.45,15.477s-1.073,1.205-0.192,2.057
		c1.154,1.117,2.322-0.435,2.322-0.435c6.279-7.358,12.017-16.508,6.461-19.423c-4.582-2.404-5.365,4.024-6.975,3.398
		c-1.987-0.773,0.704-7.445-4.917-7.78c-5.932-0.353-3.105,7.314-4.746,7.822c-2.257,0.699-4.217-3.751-7.772-1.026
		c-1.84,1.411-1.52,5.812,3.041,8.315c7.862,4.315,9.168,2.247,4.918,16.095c-1.249,4.068-1.664,6.403-0.792,8.122
		c2.461,4.851,8.854,6.479,12.832,4.284c2.714-1.498,2.607-4.881,3.87-11.956c0.79-4.425,2.173-7.188,6.892-14.703
		c4.688-7.467,8.782-15.435,7.18-24.776c-1.669-9.73-10.053-21.816-31.057-20.333c-21.75,1.535-26.911,14.895-25.009,26.141
		c1.252,7.409,9.379,16.964,11.991,23.825s3.754,17.326,8.086,22.091c3.786,4.165,17.961,4.884,20.147,8.447
		c0.315,0.514,0.252,1.094-0.518,1.526c-2.224,1.247-18.449-8.056-20.208-2.079c-1.722,5.854,18.973,6.624,18.255,9.959
		c-0.495,2.3-17.512-7.126-19.249-2.773c-2.349,5.887,16.63,6.471,15.782,9.479c-0.993,3.518-10.719-3.916-12.453,0.742
		c-1.587,4.262,8.062,5.751,8.062,5.751s1.342,0.246,1.523-0.63C68.413,373.377,67.288,373.118,67.288,373.118z"/>
</g>
</svg>
