<?xml version="1.0" encoding="utf-8"?>
<!-- Generator: Adobe Illustrator 16.0.4, SVG Export Plug-In . SVG Version: 6.00 Build 0)  -->
<!DOCTYPE svg PUBLIC "-//W3C//DTD SVG 1.1//EN" "http://www.w3.org/Graphics/SVG/1.1/DTD/svg11.dtd">
<svg version="1.1" id="Layer_1" xmlns="http://www.w3.org/2000/svg" xmlns:xlink="http://www.w3.org/1999/xlink" x="0px" y="0px"
	 width="500px" height="500px" viewBox="0 0 500 500" enable-background="new 0 0 500 500" xml:space="preserve">
<g opacity="0.9">
	<g>
		<defs>
			<rect id="SVGID_1_" x="89.083" y="36.836" width="139.425" height="139.426"/>
		</defs>
		<clipPath id="SVGID_2_">
			<use xlink:href="#SVGID_1_"  overflow="visible"/>
		</clipPath>
		<path clip-path="url(#SVGID_2_)" fill="#A4CC57" d="M220.935,74.984c17.435,34.318,3.745,76.273-30.574,93.701
			c-34.318,17.435-76.271,3.747-93.704-30.571c-17.431-34.315-3.745-76.271,30.577-93.705
			C161.549,26.979,203.501,40.669,220.935,74.984"/>
	</g>
</g>
<g opacity="0.9">
	<g>
		<defs>
			<rect id="SVGID_3_" x="162.171" y="14.055" width="139.423" height="139.424"/>
		</defs>
		<clipPath id="SVGID_4_">
			<use xlink:href="#SVGID_3_"  overflow="visible"/>
		</clipPath>
		<path clip-path="url(#SVGID_4_)" fill="#99C84E" d="M294.021,52.201c17.434,34.319,3.743,76.271-30.579,93.701
			c-34.314,17.435-76.267,3.745-93.7-30.57c-17.434-34.322-3.744-76.271,30.577-93.706C234.634,4.196,276.586,17.883,294.021,52.201
			"/>
	</g>
</g>
<g opacity="0.9">
	<g>
		<defs>
			<rect id="SVGID_5_" x="234.388" y="20.465" width="139.423" height="139.426"/>
		</defs>
		<clipPath id="SVGID_6_">
			<use xlink:href="#SVGID_5_"  overflow="visible"/>
		</clipPath>
		<path clip-path="url(#SVGID_6_)" fill="#86C15A" d="M366.239,58.611c17.435,34.319,3.745,76.274-30.573,93.706
			c-34.322,17.43-76.271,3.743-93.705-30.575c-17.435-34.318-3.744-76.271,30.578-93.704
			C306.854,10.606,348.806,24.297,366.239,58.611"/>
	</g>
</g>
<g opacity="0.9">
	<g>
		<defs>
			<rect id="SVGID_7_" x="296.811" y="60.184" width="139.426" height="139.425"/>
		</defs>
		<clipPath id="SVGID_8_">
			<use xlink:href="#SVGID_7_"  overflow="visible"/>
		</clipPath>
		<path clip-path="url(#SVGID_8_)" fill="#75C044" d="M428.663,98.331c17.434,34.316,3.744,76.271-30.575,93.702
			c-34.317,17.434-76.271,3.743-93.704-30.571c-17.437-34.321-3.744-76.271,30.577-93.705
			C369.277,50.326,411.229,64.014,428.663,98.331"/>
	</g>
</g>
<g opacity="0.9">
	<g>
		<defs>
			<rect id="SVGID_9_" x="338.166" y="122.443" width="139.422" height="139.419"/>
		</defs>
		<clipPath id="SVGID_10_">
			<use xlink:href="#SVGID_9_"  overflow="visible"/>
		</clipPath>
		<path clip-path="url(#SVGID_10_)" fill="#6DBA45" d="M470.017,160.591c17.432,34.314,3.745,76.271-30.573,93.698
			c-34.321,17.437-76.271,3.743-93.708-30.571c-17.43-34.318-3.744-76.271,30.577-93.705
			C410.632,112.583,452.581,126.272,470.017,160.591"/>
	</g>
</g>
<g opacity="0.9">
	<g>
		<defs>
			<rect id="SVGID_11_" x="348.955" y="196.771" width="139.419" height="139.42"/>
		</defs>
		<clipPath id="SVGID_12_">
			<use xlink:href="#SVGID_11_"  overflow="visible"/>
		</clipPath>
		<path clip-path="url(#SVGID_12_)" fill="#5AB547" d="M480.807,234.914c17.431,34.317,3.744,76.273-30.577,93.704
			c-34.319,17.431-76.268,3.744-93.705-30.575c-17.431-34.318-3.743-76.271,30.574-93.704
			C421.421,186.908,463.369,200.598,480.807,234.914"/>
	</g>
</g>
<g opacity="0.9">
	<g>
		<defs>
			<rect id="SVGID_13_" x="322.655" y="267.018" width="139.422" height="139.422"/>
		</defs>
		<clipPath id="SVGID_14_">
			<use xlink:href="#SVGID_13_"  overflow="visible"/>
		</clipPath>
		<path clip-path="url(#SVGID_14_)" fill="#3EAF49" d="M454.504,305.164c17.437,34.315,3.745,76.271-30.577,93.702
			c-34.312,17.434-76.268,3.744-93.698-30.571c-17.438-34.319-3.744-76.274,30.577-93.708
			C395.118,257.159,437.074,270.847,454.504,305.164"/>
	</g>
</g>
<g opacity="0.9">
	<g>
		<defs>
			<rect id="SVGID_15_" x="273.157" y="319.818" width="139.423" height="139.426"/>
		</defs>
		<clipPath id="SVGID_16_">
			<use xlink:href="#SVGID_15_"  overflow="visible"/>
		</clipPath>
		<path clip-path="url(#SVGID_16_)" fill="#2AAB4A" d="M405.009,357.967c17.435,34.318,3.745,76.271-30.577,93.701
			c-34.317,17.434-76.268,3.747-93.704-30.571c-17.431-34.321-3.74-76.271,30.58-93.705
			C345.623,309.962,387.575,323.648,405.009,357.967"/>
	</g>
</g>
<g opacity="0.9">
	<g>
		<defs>
			<rect id="SVGID_17_" x="205.352" y="346.616" width="139.423" height="139.419"/>
		</defs>
		<clipPath id="SVGID_18_">
			<use xlink:href="#SVGID_17_"  overflow="visible"/>
		</clipPath>
		<path clip-path="url(#SVGID_18_)" fill="#11A54A" d="M337.203,384.761c17.432,34.315,3.745,76.27-30.574,93.701
			c-34.32,17.434-76.271,3.744-93.704-30.571c-17.434-34.321-3.743-76.273,30.574-93.708
			C277.817,336.753,319.768,350.442,337.203,384.761"/>
	</g>
</g>
<g opacity="0.9">
	<g>
		<defs>
			<rect id="SVGID_19_" x="128.793" y="340.188" width="139.422" height="139.425"/>
		</defs>
		<clipPath id="SVGID_20_">
			<use xlink:href="#SVGID_19_"  overflow="visible"/>
		</clipPath>
		<path clip-path="url(#SVGID_20_)" fill="#1C9B47" d="M260.642,378.334c17.434,34.319,3.748,76.271-30.574,93.702
			c-34.315,17.434-76.268,3.746-93.701-30.571c-17.434-34.322-3.744-76.271,30.574-93.705
			C201.259,330.329,243.208,344.02,260.642,378.334"/>
	</g>
</g>
<g opacity="0.9">
	<g>
		<defs>
			<rect id="SVGID_21_" x="64.85" y="305.031" width="139.425" height="139.422"/>
		</defs>
		<clipPath id="SVGID_22_">
			<use xlink:href="#SVGID_21_"  overflow="visible"/>
		</clipPath>
		<path clip-path="url(#SVGID_22_)" fill="#1C9244" d="M196.702,343.176c17.433,34.318,3.743,76.271-30.578,93.701
			c-34.314,17.435-76.267,3.744-93.701-30.572c-17.434-34.317-3.744-76.271,30.577-93.704
			C137.316,295.171,179.269,308.857,196.702,343.176"/>
	</g>
</g>
<g opacity="0.9">
	<g>
		<defs>
			<rect id="SVGID_23_" x="23.092" y="234.301" width="139.422" height="139.425"/>
		</defs>
		<clipPath id="SVGID_24_">
			<use xlink:href="#SVGID_23_"  overflow="visible"/>
		</clipPath>
		<path clip-path="url(#SVGID_24_)" fill="#198B40" d="M154.94,272.448c17.434,34.318,3.744,76.273-30.577,93.701
			c-34.315,17.434-76.268,3.748-93.702-30.571c-17.434-34.318-3.743-76.271,30.575-93.704
			C95.555,224.442,137.507,238.133,154.94,272.448"/>
	</g>
</g>
<g opacity="0.9">
	<g>
		<defs>
			<rect id="SVGID_25_" x="12.22" y="158.85" width="139.42" height="139.422"/>
		</defs>
		<clipPath id="SVGID_26_">
			<use xlink:href="#SVGID_25_"  overflow="visible"/>
		</clipPath>
		<path clip-path="url(#SVGID_26_)" fill="#12803A" d="M144.069,196.996c17.435,34.316,3.744,76.269-30.574,93.698
			c-34.318,17.438-76.271,3.747-93.704-30.567c-17.432-34.321-3.745-76.274,30.577-93.708
			C84.684,148.991,126.636,162.679,144.069,196.996"/>
	</g>
</g>
<g opacity="0.8">
	<g>
		<defs>
			<rect id="SVGID_27_" x="36.356" y="93.681" width="139.429" height="139.422"/>
		</defs>
		<clipPath id="SVGID_28_">
			<use xlink:href="#SVGID_27_"  overflow="visible"/>
		</clipPath>
		<path clip-path="url(#SVGID_28_)" fill="#0B7836" d="M168.209,131.827c17.434,34.318,3.744,76.271-30.575,93.702
			c-34.318,17.434-76.271,3.743-93.704-30.571c-17.431-34.319-3.743-76.273,30.577-93.708
			C108.822,83.822,150.774,97.51,168.209,131.827"/>
	</g>
</g>
</svg>
