<?xml version="1.0" encoding="utf-8"?>
<!-- Generator: Adobe Illustrator 16.0.4, SVG Export Plug-In . SVG Version: 6.00 Build 0)  -->
<!DOCTYPE svg PUBLIC "-//W3C//DTD SVG 1.1//EN" "http://www.w3.org/Graphics/SVG/1.1/DTD/svg11.dtd">
<svg version="1.1" xmlns="http://www.w3.org/2000/svg" xmlns:xlink="http://www.w3.org/1999/xlink" x="0px" y="0px"
	 width="139.333px" height="139.333px" viewBox="0 0 139.333 139.333" enable-background="new 0 0 139.333 139.333"
	 xml:space="preserve">
<g id="Layer_1">
	<text transform="matrix(1 0 0 1 -150.7007 25.3813)"><tspan x="0" y="0" font-family="'MyriadPro-Regular'" font-size="12">F</tspan><tspan x="5.304" y="0" font-family="'MyriadPro-Regular'" font-size="12">a</tspan><tspan x="11.088" y="0" font-family="'MyriadPro-Regular'" font-size="12">r</tspan><tspan x="15.06" y="0" font-family="'MyriadPro-Regular'" font-size="12">m </tspan><tspan x="27.612" y="0" font-family="'MyriadPro-Regular'" font-size="12">P</tspan><tspan x="33.696" y="0" font-family="'MyriadPro-Regular'" font-size="12">ond </tspan><tspan x="56.256" y="0" font-family="'MyriadPro-Regular'" font-size="12">C</tspan><tspan x="63.192" y="0" font-family="'MyriadPro-Regular'" font-size="12">i</tspan><tspan x="66" y="0" font-family="'MyriadPro-Regular'" font-size="12">r</tspan><tspan x="69.804" y="0" font-family="'MyriadPro-Regular'" font-size="12">cle</tspan></text>
	<text transform="matrix(1 0 0 1 -150.7007 126.1812)"><tspan x="0" y="0" font-family="'MyriadPro-Regular'" font-size="12">B</tspan><tspan x="6.552" y="0" font-family="'MyriadPro-Regular'" font-size="12">eebe Lake </tspan><tspan x="59.59" y="0" font-family="'MyriadPro-Regular'" font-size="12">R</tspan><tspan x="66.095" y="0" font-family="'MyriadPro-Regular'" font-size="12">ede</tspan><tspan x="84.886" y="0" font-family="'MyriadPro-Regular'" font-size="12">v</tspan><tspan x="90.538" y="0" font-family="'MyriadPro-Regular'" font-size="12">elopme</tspan><tspan x="128.817" y="0" font-family="'MyriadPro-Regular'" font-size="12">n</tspan><tspan x="135.44" y="0" font-family="'MyriadPro-Regular'" font-size="12">t</tspan></text>
	<text transform="matrix(1 0 0 1 -150.7007 270.1812)"><tspan x="0" y="0" font-family="'MyriadPro-Regular'" font-size="12">C</tspan><tspan x="6.84" y="0" font-family="'MyriadPro-Regular'" font-size="12">o</tspan><tspan x="13.428" y="0" font-family="'MyriadPro-Regular'" font-size="12">r</tspan><tspan x="17.4" y="0" font-family="'MyriadPro-Regular'" font-size="12">nell</tspan><tspan x="35.735" y="0" font-family="'MyriadPro-Regular'" font-size="12">T</tspan><tspan x="40.847" y="0" font-family="'MyriadPro-Regular'" font-size="12">ech </tspan><tspan x="61.439" y="0" font-family="'MyriadPro-Regular'" font-size="12">I</tspan><tspan x="64.427" y="0" font-family="'MyriadPro-Regular'" font-size="12">niti</tspan><tspan x="80.675" y="0" font-family="'MyriadPro-Regular'" font-size="12">a</tspan><tspan x="86.411" y="0" font-family="'MyriadPro-Regular'" font-size="12">ti</tspan><tspan x="93.191" y="0" font-family="'MyriadPro-Regular'" font-size="12">v</tspan><tspan x="98.843" y="0" font-family="'MyriadPro-Regular'" font-size="12">es</tspan></text>
	<text transform="matrix(1 0 0 1 -150.7007 399.7817)"><tspan x="0" y="0" font-family="'MyriadPro-Regular'" font-size="12">R</tspan><tspan x="6.504" y="0" font-family="'MyriadPro-Regular'" font-size="12">e</tspan><tspan x="12.852" y="0" font-family="'MyriadPro-Regular'" font-size="12">-</tspan><tspan x="16.536" y="0" font-family="'MyriadPro-Regular'" font-size="12">I</tspan><tspan x="19.512" y="0" font-family="'MyriadPro-Regular'" font-size="12">nn</tspan><tspan x="32.833" y="0" font-family="'MyriadPro-Regular'" font-size="12">o</tspan><tspan x="39.348" y="0" font-family="'MyriadPro-Regular'" font-size="12">v</tspan><tspan x="45.072" y="0" font-family="'MyriadPro-Regular'" font-size="12">a</tspan><tspan x="50.82" y="0" font-family="'MyriadPro-Regular'" font-size="12">tions</tspan></text>
	<text transform="matrix(1 0 0 1 193.665 6.6699)"><tspan x="0" y="0" font-family="'MyriadPro-Bold'" font-size="8">CUSD </tspan><tspan x="21.721" y="0" font-family="'MyriadPro-Bold'" font-size="8">C</tspan><tspan x="26.337" y="0" font-family="'MyriadPro-Bold'" font-size="8">olors</tspan></text>
	<text transform="matrix(1 0 0 1 193.665 16.27)"><tspan x="0" y="0" font-family="'MyriadPro-Regular'" font-size="8">Da</tspan><tspan x="9.184" y="0" font-family="'MyriadPro-Regular'" font-size="8">r</tspan><tspan x="11.832" y="0" font-family="'MyriadPro-Regular'" font-size="8">k Blue</tspan></text>
	<text transform="matrix(1 0 0 1 193.665 25.8696)" font-family="'MyriadPro-Regular'" font-size="8">#197999</text>
	<text transform="matrix(1 0 0 1 193.665 45.0698)"><tspan x="0" y="0" font-family="'MyriadPro-Regular'" font-size="8">G</tspan><tspan x="5.168" y="0" font-family="'MyriadPro-Regular'" font-size="8">r</tspan><tspan x="7.712" y="0" font-family="'MyriadPro-Regular'" font-size="8">een</tspan></text>
	<text transform="matrix(1 0 0 1 193.665 54.6699)" font-family="'MyriadPro-Regular'" font-size="8">#47AE48</text>
	<text transform="matrix(1 0 0 1 193.665 73.8696)"><tspan x="0" y="0" font-family="'MyriadPro-Regular'" font-size="8">Da</tspan><tspan x="9.184" y="0" font-family="'MyriadPro-Regular'" font-size="8">r</tspan><tspan x="11.832" y="0" font-family="'MyriadPro-Regular'" font-size="8">k G</tspan><tspan x="22.448" y="0" font-family="'MyriadPro-Regular'" font-size="8">r</tspan><tspan x="24.984" y="0" font-family="'MyriadPro-Regular'" font-size="8">een</tspan></text>
	<text transform="matrix(1 0 0 1 193.665 83.4697)" font-family="'MyriadPro-Regular'" font-size="8">#249145</text>
	<text transform="matrix(1 0 0 1 193.665 179.4697)"><tspan x="0" y="0" font-family="'MyriadPro-Regular'" font-size="8">Lig</tspan><tspan x="10.119" y="0" font-family="'MyriadPro-Regular'" font-size="8">h</tspan><tspan x="14.526" y="0" font-family="'MyriadPro-Regular'" font-size="8">t G</tspan><tspan x="24.039" y="0" font-family="'MyriadPro-Regular'" font-size="8">r</tspan><tspan x="26.615" y="0" font-family="'MyriadPro-Regular'" font-size="8">a</tspan><tspan x="30.415" y="0" font-family="'MyriadPro-Regular'" font-size="8">y</tspan></text>
	<text transform="matrix(1 0 0 1 193.665 189.0698)" font-family="'MyriadPro-Regular'" font-size="8">#D0D1D2</text>
	<text transform="matrix(1 0 0 1 193.665 208.27)"><tspan x="0" y="0" font-family="'MyriadPro-Regular'" font-size="8">Lig</tspan><tspan x="10.119" y="0" font-family="'MyriadPro-Regular'" font-size="8">h</tspan><tspan x="14.526" y="0" font-family="'MyriadPro-Regular'" font-size="8">t G</tspan><tspan x="24.039" y="0" font-family="'MyriadPro-Regular'" font-size="8">r</tspan><tspan x="26.584" y="0" font-family="'MyriadPro-Regular'" font-size="8">een</tspan></text>
	<text transform="matrix(1 0 0 1 193.665 217.8696)" font-family="'MyriadPro-Regular'" font-size="8">#258C43</text>
	<text transform="matrix(1 0 0 1 193.665 237.0698)"><tspan x="0" y="0" font-family="'MyriadPro-Regular'" font-size="8">B</tspan><tspan x="4.336" y="0" font-family="'MyriadPro-Regular'" font-size="8">r</tspan><tspan x="6.88" y="0" font-family="'MyriadPro-Regular'" font-size="8">o</tspan><tspan x="11.224" y="0" font-family="'MyriadPro-Regular'" font-size="8">wn</tspan></text>
	<text transform="matrix(1 0 0 1 193.665 246.6699)" font-family="'MyriadPro-Regular'" font-size="8">#B18C69</text>
	<text transform="matrix(1 0 0 1 193.665 294.6699)"><tspan x="0" y="0" font-family="'MyriadPro-Regular'" font-size="8">G</tspan><tspan x="5.168" y="0" font-family="'MyriadPro-Regular'" font-size="8">r</tspan><tspan x="7.744" y="0" font-family="'MyriadPro-Regular'" font-size="8">a</tspan><tspan x="11.545" y="0" font-family="'MyriadPro-Regular'" font-size="8">y</tspan></text>
	<text transform="matrix(1 0 0 1 193.665 304.27)" font-family="'MyriadPro-Regular'" font-size="8">#626366</text>
	<text transform="matrix(1 0 0 1 193.665 323.4697)" font-family="'MyriadPro-Regular'" font-size="8"> </text>
	<text transform="matrix(1 0 0 1 193.665 429.0698)"><tspan x="0" y="0" font-family="'MyriadPro-Regular'" font-size="8">R</tspan><tspan x="4.336" y="0" font-family="'MyriadPro-Regular'" font-size="8">ed</tspan></text>
	<text transform="matrix(1 0 0 1 193.665 438.6694)" font-family="'MyriadPro-Regular'" font-size="8">#C13842</text>
	<text transform="matrix(1 0 0 1 193.665 457.8696)"><tspan x="0" y="0" font-family="'MyriadPro-Regular'" font-size="8">G</tspan><tspan x="5.168" y="0" font-family="'MyriadPro-Regular'" font-size="8">r</tspan><tspan x="7.744" y="0" font-family="'MyriadPro-Regular'" font-size="8">a</tspan><tspan x="11.545" y="0" font-family="'MyriadPro-Regular'" font-size="8">y</tspan></text>
	<text transform="matrix(1 0 0 1 193.665 467.4702)" font-family="'MyriadPro-Regular'" font-size="8">#5A5B5D</text>
	<rect x="166.585" y="11.67" fill="#1A7999" width="25.414" height="4.667"/>
	<rect x="257.918" y="175.247" fill="#66B2DE" width="25.414" height="4.667"/>
	<rect x="166.585" y="39.67" fill="#47AE48" width="25.414" height="4.667"/>
	<rect x="166.585" y="67.342" fill="#249145" width="25.414" height="4.667"/>
	<rect x="166.585" y="175.247" fill="#D1D2D3" width="25.414" height="4.667"/>
	<g>
		<defs>
			<rect id="SVGID_1_" x="-184.67" y="-4.664" width="612.001" height="792"/>
		</defs>
		<clipPath id="SVGID_2_">
			<use xlink:href="#SVGID_1_"  overflow="visible"/>
		</clipPath>
		<g opacity="0.7" clip-path="url(#SVGID_2_)">
			<g>
				<defs>
					<rect id="SVGID_3_" x="165.253" y="209.428" width="25.414" height="4.667"/>
				</defs>
				<clipPath id="SVGID_4_">
					<use xlink:href="#SVGID_3_"  overflow="visible"/>
				</clipPath>
				<rect x="165.253" y="209.428" clip-path="url(#SVGID_4_)" fill="#278D44" width="25.414" height="4.667"/>
			</g>
		</g>
	</g>
	<rect x="166.585" y="230.669" fill="#B18D6A" width="25.414" height="4.667"/>
	<rect x="166.585" y="291.944" fill="#636466" width="25.414" height="4.667"/>
	<rect x="166.585" y="422.372" fill="#C23942" width="25.414" height="4.667"/>
	<rect x="166.585" y="453.714" fill="#5B5B5E" width="25.414" height="4.667"/>
	<text transform="matrix(1 0 0 1 288.6641 179.5376)" font-family="'MyriadPro-Regular'" font-size="8">Blue</text>
	<text transform="matrix(1 0 0 1 288.6641 189.1377)" font-family="'MyriadPro-Regular'" font-size="8">#65B1DD</text>
	<path fill="#B18D6A" d="M96.298,194.448c-3.087,0.162-14.865-0.812-17.952-1.381c-3.086-0.568-13.078-4.224-13.078-4.224
		s-4.224-1.299-7.392-0.917s-3.005-0.626-5.766-0.626c-2.763,0-10.398,3.005-13.566,2.274s-5.361-3.412-7.798-3.412
		c-0.443,0-0.934,0.115-1.441,0.299c-2.168,5.208-3.367,10.92-3.367,16.913h88.083c0-2.697-0.244-5.337-0.708-7.9
		C105.594,194.089,99.115,194.3,96.298,194.448"/>
	<path fill="#66B2DE" d="M69.98,247.416c24.324,0,44.042-19.718,44.042-44.042H25.938C25.938,227.698,45.657,247.416,69.98,247.416"
		/>
	<path fill="#D1D2D3" d="M38.544,189.574c3.168,0.731,10.804-2.274,13.566-2.274c2.761,0,2.599,1.008,5.767,0.626
		c3.167-0.382,7.392,0.917,7.392,0.917s9.991,3.656,13.078,4.224c3.086,0.569,14.864,1.543,17.951,1.381
		c2.818-0.148,9.296-0.359,17.016,1.026c-3.723-20.553-21.707-36.142-43.334-36.142c-18.331,0-34.043,11.2-40.675,27.129
		c0.508-0.184,0.998-0.299,1.441-0.299C33.183,186.162,35.376,188.843,38.544,189.574"/>
	<g opacity="0.7">
		<g>
			<defs>
				<rect id="SVGID_5_" x="26.426" y="172.586" width="85.463" height="30.788"/>
			</defs>
			<clipPath id="SVGID_6_">
				<use xlink:href="#SVGID_5_"  overflow="visible"/>
			</clipPath>
			<polygon clip-path="url(#SVGID_6_)" fill="#278D44" points="26.426,203.374 37.066,177.391 48.049,203.374 59.032,177.391 
				70.525,203.374 77.566,187.345 84.431,203.374 86.147,203.374 98.503,172.586 111.889,203.374 			"/>
		</g>
	</g>
	<path fill-rule="evenodd" clip-rule="evenodd" fill="#C23942" d="M74.39,47.837l3.68-0.314V66.68h-3.193
		c-2.492-3.858-5.317-7.747-7.937-11.805v11.763h-3.753V47.529h3.288c1.158,1.64,6.543,9.736,7.915,11.826V47.837z"/>
	<polyline fill-rule="evenodd" clip-rule="evenodd" fill="#C03741" points="128.831,71.091 128.831,90.525 124.819,90.525 
		124.819,82.483 118.507,82.483 118.507,90.544 114.44,90.544 114.44,71.137 118.471,71.137 118.471,78.919 124.731,78.919 
		124.731,71.183 	"/>
	<polygon fill-rule="evenodd" clip-rule="evenodd" fill="#C23942" points="93.584,58.829 85.82,58.829 85.82,63.511 94.862,63.511 
		94.862,66.625 82.157,66.625 82.157,47.542 94.824,47.542 94.824,50.924 85.838,50.924 85.838,55.348 93.584,55.348 	"/>
	<polygon fill-rule="evenodd" clip-rule="evenodd" fill="#C23942" points="93.584,82.901 85.82,82.901 85.82,87.585 94.862,87.585 
		94.862,90.698 82.157,90.698 82.157,71.615 94.824,71.615 94.824,74.998 85.838,74.998 85.838,79.422 93.584,79.422 	"/>
	<path fill-rule="evenodd" clip-rule="evenodd" fill="#C03741" d="M22.671,61.045l3.255,1.216c-0.285,1.163-2.18,4.612-6.823,4.642
		c-2.359,0.014-4.091-1.296-4.994-2.26c-1.18-1.258-1.967-3.775-1.967-7.748c0-4.483,0.637-5.527,1.337-6.687
		c1.022-1.69,3.72-3.029,5.624-3.029c4.642,0,6.538,3.776,6.961,4.798l-3.394,1.139c0,0-0.537-2.767-3.567-2.767
		c-1.148,0-1.42,0.194-2.11,0.629c-1.585,1-1.138,4.619-1.12,6.048c0.026,2.115,0.059,5.072,0.739,5.766
		c0.738,0.751,1.504,1.033,2.491,1.058C19.732,63.867,22.016,63.503,22.671,61.045"/>
	<path fill-rule="evenodd" clip-rule="evenodd" fill="#C03741" d="M108.523,85.162l3.255,1.216c-0.285,1.163-2.18,4.612-6.822,4.641
		c-2.359,0.014-4.092-1.295-4.994-2.259c-1.181-1.259-1.967-3.776-1.967-7.749c0-4.483,0.637-5.527,1.337-6.687
		c1.022-1.691,3.72-3.029,5.624-3.029c4.641,0,6.537,3.776,6.961,4.798l-3.394,1.138c0,0-0.538-2.767-3.567-2.767
		c-1.149,0-1.421,0.194-2.11,0.629c-1.586,1-1.138,4.619-1.121,6.048c0.027,2.115,0.06,5.073,0.74,5.766
		c0.737,0.751,1.504,1.033,2.491,1.058C105.583,87.982,107.868,87.619,108.523,85.162"/>
	<polygon fill-rule="evenodd" clip-rule="evenodd" fill="#C03741" points="72.564,90.568 68.792,90.568 68.792,74.878 
		63.177,74.878 63.177,71.25 78.163,71.25 78.163,74.845 72.564,74.867 	"/>
	<path fill-rule="evenodd" clip-rule="evenodd" fill="#C23942" d="M98.699,66.633V47.547c0,0,3.985-0.042,4.013,0
		c0.026,0.038,0,15.936,0,15.936h9.13v3.15H98.699z"/>
	<path fill-rule="evenodd" clip-rule="evenodd" fill="#C23942" d="M115.849,66.633V47.547c0,0,3.984-0.042,4.014,0
		c0.026,0.038,0,15.936,0,15.936h9.129v3.15H115.849z"/>
	<path fill-rule="evenodd" clip-rule="evenodd" fill="#5A5B5D" d="M13.732,74.638v16.216h-1.463c-0.013-0.019-0.12-0.099-0.12-0.178
		c-0.007-6.389-0.007-12.779-0.007-19.22h1.683c3.464,5.42,6.935,10.846,10.404,16.274c0.031-0.011,0.076-0.018,0.104-0.042
		c0.035-0.033,0.079-0.08,0.079-0.122c0.003-5.344,0.003-10.687,0.003-16.096h1.541v19.387h-1.539
		c-3.43-5.37-6.932-10.854-10.434-16.336C13.899,74.56,13.815,74.599,13.732,74.638"/>
	<path fill="#5B5B5E" d="M58.8,85.282l-0.045,0.217c-0.036,0.168-0.927,4.203-5.256,4.071c-2.412-0.069-4.304-1.484-4.821-3.605
		c-0.163-0.67-0.424-3.362-0.435-4.802c-0.001-0.145-0.003-0.311-0.005-0.494c-0.022-1.402-0.056-3.751,0.429-4.891
		c1.037-2.438,3.061-3.306,4.61-3.306c1.597,0,4.401,0.49,5.245,3.775l0.036,0.142l1.371-0.236l-0.041-0.164
		c-0.022-0.094-0.577-2.326-1.915-3.472c-1.063-0.911-2.539-1.412-4.154-1.412c-1.342,0-2.678,0.354-3.76,0.995
		c-3.342,1.983-3.342,6.405-3.342,9.046c0,2.031,0.272,3.596,0.419,4.437c0.032,0.186,0.059,0.341,0.077,0.464
		c0.499,3.185,2.788,5.012,6.281,5.012c5.522,0,6.453-4.916,6.462-4.965l0.019-0.106L58.8,85.282z"/>
	<path fill-rule="evenodd" clip-rule="evenodd" fill="#5B5B5E" d="M36.291,81.199l5.582-9.742h1.398l-6.307,10.847v8.575h-1.222
		v-8.575L29.573,71.47h1.374C32.714,74.712,36.291,81.199,36.291,81.199"/>
	<path fill-rule="evenodd" clip-rule="evenodd" fill="#C23942" d="M55.97,58.289c1.75-0.888,3.46-2.122,3.691-4.309
		c0.358-3.39-1.48-5.267-4.739-6.436h-9.086v19.156l3.78-0.022v-7.507h2.809c1.28,2.551,2.589,4.84,3.932,7.514h3.76
		C58.993,63.703,57.129,61.118,55.97,58.289 M56.157,53.762c-0.174,1.563-2.034,2.267-2.853,2.235l-3.651-0.01v-5.305h4.456
		C55.441,51.226,56.366,51.874,56.157,53.762"/>
	<path fill-rule="evenodd" clip-rule="evenodd" fill="#C03741" d="M42.338,57.298c0.068-1.438,0.287-3.943-0.318-5.572
		c-0.385-1.04-1.282-2.303-2.755-3.387c-0.648-0.476-2.657-0.845-3.99-0.845c-0.979,0-2.838,0.238-4.252,1.181
		c-1.534,1.022-2.198,2.729-2.557,4.051c-0.355,1.311-0.259,3.2-0.259,4.572c0,1.367,0.219,4.16,0.784,5.636
		c0.61,1.592,2.852,3.912,6.244,3.912c4.008,0,5.723-2.298,6.47-3.912C42.407,61.418,42.281,58.5,42.338,57.298 M35.275,63.621
		c-3.229,0-3.244-2.686-3.292-3.979c-0.067-1.832-0.053-3.669-0.001-5.502c0.063-2.161,1.397-3.577,3.292-3.577
		c3.181,0,3.615,1.809,3.618,3.577c0.003,1.677,0.017,4.027,0.017,5.502C38.91,61.418,38.22,63.621,35.275,63.621"/>
	<rect x="-184.67" y="-4.664" fill="none" width="612.001" height="792"/>
	<polygon fill="#249145" points="81.594,-63.242 14.559,-47.219 14.559,-65.531 81.594,-110.33 	"/>
	<g>
		<defs>
			<rect id="SVGID_7_" x="-184.67" y="-144.664" width="612.001" height="792"/>
		</defs>
		<clipPath id="SVGID_8_">
			<use xlink:href="#SVGID_7_"  overflow="visible"/>
		</clipPath>
		<path clip-path="url(#SVGID_8_)" fill="#1A7999" d="M87.166-29.984c-1.843,0.724-4.939,0.995-6.88,0.604L17.692-41.999
			c-1.941-0.391-1.953-1.089-0.028-1.549l62.649-15c1.925-0.461,4.963-0.141,6.75,0.711l28.819,13.753
			c1.787,0.853,1.742,2.142-0.102,2.866L87.166-29.984z"/>
		<polygon clip-path="url(#SVGID_8_)" fill="#47AE48" points="118.735,-47.219 86.035,-63.242 86.035,-110.33 118.735,-65.858 		"/>
	</g>
	<rect x="-184.67" y="-4.664" fill="none" width="612.001" height="792"/>
</g>
<g id="Layer_2">
	<path fill="#636466" d="M70.288,370.614c0,0-6.984-1.335-6.728-2.773c0.47-2.634,10.929,4.442,12.528-1.184
		c1.666-5.862-16.362-6.141-15.505-8.984c0.731-2.424,17.922,7.959,19.411,2.208c1.445-5.582-19.302-6.851-18.375-9.837
		c0.614-1.979,13.654,4.008,17.692,4.001c2.496-0.004,5.512-3.618,2.198-6.27c-4.918-3.934-11.075-4.141-14.884-5.631
		s-5.817-3.431-7.277-6.508c-2.951-6.222-3.262-11.678-5.798-18.027c-4.087-10.232-9.009-12.788-11.122-22.284
		c-1.836-8.255,2.427-21.724,22.627-23.183c14.835-1.071,26.667,6.448,28.452,18.051c1.315,8.544-3.86,18.387-6.853,22.667
		c-5.885,8.415-6.778,12.727-7.275,15.708s-1.226,8.682-3.047,10.173s-6.062,0.64-8.24-2.161c-1.877-2.414,0.056-6.606,1.249-11.081
		c1.063-3.987,1.857-7.658,1.234-9.459c-0.949-2.742-4.697-3.87-7.32-5.099c-3.92-1.836-4.449-3.8-2.961-4.441
		c1.729-0.745,3.497,2.524,6.646,1.825c2.819-0.626,0.378-8.09,3.479-8.223c2.649-0.113,1.193,7.143,4.006,8.012
		c3.849,1.189,4.59-5.468,6.747-3.795c4.174,3.236-7.45,15.477-7.45,15.477s-1.073,1.205-0.192,2.057
		c1.154,1.117,2.322-0.435,2.322-0.435c6.279-7.358,12.017-16.508,6.461-19.423c-4.582-2.404-5.365,4.024-6.975,3.398
		c-1.987-0.773,0.704-7.445-4.917-7.78c-5.932-0.353-3.105,7.314-4.746,7.822c-2.257,0.699-4.217-3.751-7.772-1.026
		c-1.84,1.411-1.52,5.812,3.041,8.315c7.862,4.315,9.168,2.247,4.918,16.095c-1.249,4.068-1.664,6.403-0.792,8.122
		c2.461,4.851,8.854,6.479,12.832,4.284c2.714-1.498,2.607-4.881,3.87-11.956c0.79-4.425,2.173-7.188,6.892-14.703
		c4.688-7.467,8.782-15.435,7.18-24.776c-1.669-9.73-10.053-21.816-31.057-20.333c-21.75,1.535-26.911,14.895-25.009,26.141
		c1.252,7.409,9.379,16.964,11.991,23.825s3.754,17.326,8.086,22.091c3.786,4.165,17.961,4.884,20.147,8.447
		c0.315,0.514,0.252,1.094-0.518,1.526c-2.224,1.247-18.449-8.056-20.208-2.079c-1.722,5.854,18.973,6.624,18.255,9.959
		c-0.495,2.3-17.512-7.126-19.249-2.773c-2.349,5.887,16.63,6.471,15.782,9.479c-0.993,3.518-10.719-3.916-12.453,0.742
		c-1.587,4.262,8.062,5.751,8.062,5.751s1.342,0.246,1.523-0.63C71.413,370.873,70.288,370.614,70.288,370.614z"/>
</g>
</svg>
