<?xml version="1.0" encoding="utf-8"?>
<!-- Generator: Adobe Illustrator 16.0.4, SVG Export Plug-In . SVG Version: 6.00 Build 0)  -->
<!DOCTYPE svg PUBLIC "-//W3C//DTD SVG 1.1//EN" "http://www.w3.org/Graphics/SVG/1.1/DTD/svg11.dtd">
<svg version="1.1" id="Layer_1" xmlns="http://www.w3.org/2000/svg" xmlns:xlink="http://www.w3.org/1999/xlink" x="0px" y="0px"
	 width="100px" height="100px" viewBox="0 0 100 100" enable-background="new 0 0 100 100" xml:space="preserve">
<path fill="none" stroke="#6CBE45" d="M83.451,18.1c0-1.193-0.967-2.16-2.16-2.16H17.688c-1.193,0-2.16,0.967-2.16,2.16v63.399
	c0,1.192,0.967,2.16,2.16,2.16h33.927c0.01-0.057,0.023-0.107,0.031-0.168c0.027-0.228,0.045-0.476,0.043-0.768
	c-0.07-7.529-0.086-15.064,0.006-22.591c0.023-1.736-0.574-2.204-2.188-2.093c-1.754,0.114-3.522-0.021-5.285,0.038
	c-1.222,0.042-1.769-0.37-1.734-1.669c0.064-2.553,0.053-5.102,0.007-7.651c-0.024-1.119,0.43-1.479,1.513-1.452
	c2.425,0.056,4.852,0.019,6.176,0.019c1.321,0,1.348-0.423,1.348-0.423c0.029-0.422,0.078-1.18,0.125-1.935
	c0.213-3.313,0.109-6.686,0.705-9.926c0.955-5.182,4.977-8.581,10.287-9.223c1.795-0.215,3.611-0.349,5.42-0.322
	c1.799,0.021,3.594,0.29,4.545,0.376c0.953,0.084,0.953,1.642,0.953,1.642v6.315c0,1.683-0.717,1.683-0.717,1.683
	c-0.719,0-2.152-0.054-3.576,0.016c-1.205,0.055-2.434,0.113-3.592,0.41c-1.516,0.392-2.529,1.409-2.578,3.088
	c-0.07,2.305-0.057,4.613-0.145,6.918c-0.047,1.168,0.5,1.416,1.545,1.396c2.844-0.054,5.688-0.018,7.258-0.018
	c1.574,0,1.488,0.878,1.488,0.878c-0.078,0.883-0.201,2.473-0.389,4.052c-0.178,1.496-0.527,2.97-0.611,4.468
	c-0.062,1.076-0.543,1.351-1.477,1.342c-2.066-0.012-4.133,0.051-6.197-0.012c-1.146-0.03-1.629,0.326-1.621,1.546
	c0.029,7.891,0.025,15.79,0,23.686c0,0.075,0.004,0.141,0.008,0.21c0.003,0.061,0.011,0.112,0.016,0.168h18.312
	c1.193,0,2.16-0.968,2.16-2.16V18.1z"/>
</svg>
