<?xml version="1.0" encoding="utf-8"?>
<!-- Generator: Adobe Illustrator 16.0.4, SVG Export Plug-In . SVG Version: 6.00 Build 0)  -->
<!DOCTYPE svg PUBLIC "-//W3C//DTD SVG 1.1//EN" "http://www.w3.org/Graphics/SVG/1.1/DTD/svg11.dtd">
<svg version="1.1" id="Layer_1" xmlns="http://www.w3.org/2000/svg" xmlns:xlink="http://www.w3.org/1999/xlink" x="0px" y="0px"
	 width="100px" height="100px" viewBox="0 0 100 100" enable-background="new 0 0 100 100" xml:space="preserve">
<path fill="none" stroke="#58595B" stroke-miterlimit="10" d="M82.164,77.991c0,2.528-2.047,4.575-4.572,4.575H22.407
	c-2.527,0-4.574-2.047-4.574-4.575V22.009c0-2.527,2.047-4.575,4.574-4.575h55.185c2.525,0,4.572,2.048,4.572,4.575V77.991z"/>
<g id="Your_Icon">
	<g>
		<path fill="#58595B" stroke="#FFFFFF" stroke-width="0.7" stroke-miterlimit="10" d="M50.47,61.123
			c-4.26,0-7.727-3.465-7.727-7.726s3.467-7.728,7.727-7.728c4.261,0,7.727,3.467,7.727,7.728S54.73,61.123,50.47,61.123z
			 M50.47,47.508c-3.247,0-5.889,2.642-5.889,5.89c0,3.247,2.642,5.889,5.889,5.889c3.248,0,5.89-2.642,5.89-5.889
			C56.359,50.149,53.718,47.508,50.47,47.508z"/>
	</g>
	<g>
		<path fill="#58595B" stroke="#FFFFFF" stroke-width="0.7" stroke-miterlimit="10" d="M46.924,53.964
			c-0.057,0-0.115-0.004-0.174-0.016c-0.498-0.095-0.825-0.577-0.729-1.075c0.604-3.159,3.214-3.985,3.325-4.02
			c0.484-0.147,0.999,0.127,1.146,0.612c0.146,0.484-0.123,0.993-0.604,1.144c-0.083,0.028-1.673,0.578-2.061,2.609
			C47.741,53.658,47.356,53.964,46.924,53.964z"/>
	</g>
	<path fill="#58595B" stroke="#FFFFFF" stroke-width="0.7" stroke-miterlimit="10" d="M63.649,37.604v3.456h-4.753v-3.456H63.649
		 M63.649,35.876h-4.753c-0.954,0-1.729,0.773-1.729,1.729v3.456c0,0.955,0.774,1.729,1.729,1.729h4.753
		c0.955,0,1.729-0.773,1.729-1.729v-3.456C65.378,36.649,64.604,35.876,63.649,35.876L63.649,35.876z"/>
	<path fill="#58595B" stroke="#FFFFFF" stroke-width="0.7" stroke-miterlimit="10" d="M67.374,31.555H48.605l-0.799-2.053
		c-0.586-1.511-2.288-1.837-3.172-1.837H39.16c-0.905,0-2.605,0.326-3.191,1.838l-0.799,2.052h-1.604
		c-1.522,0-2.756,1.233-2.756,2.756v33.811c0,1.521,1.234,2.756,2.756,2.756h33.81c1.523,0,2.758-1.234,2.758-2.756V34.311
		C70.132,32.788,68.897,31.555,67.374,31.555z M37.681,30.099c0.262-0.676,1.417-0.705,1.458-0.705h0.001h5.513
		c0.024,0,1.176,0.022,1.439,0.703l0.558,1.458h-9.525L37.681,30.099z M33.401,33.283H67.54c0.506,0,0.863,0.356,0.863,0.863v17.285
		h-6.9c-0.933-5.246-5.523-9.244-11.033-9.244c-5.509,0-10.1,3.998-11.032,9.244h-6.9V34.146
		C32.537,33.64,32.893,33.283,33.401,33.283z M59.842,53.397c0,5.167-4.204,9.371-9.372,9.371c-5.167,0-9.372-4.204-9.372-9.371
		s4.204-9.372,9.372-9.372C55.638,44.025,59.842,48.229,59.842,53.397z M67.54,69.148H33.401c-0.508,0-0.864-0.355-0.864-0.863
		V53.16h6.73c-0.002,0.08-0.006,0.158-0.006,0.237c0,6.181,5.028,11.208,11.208,11.208s11.209-5.027,11.209-11.208
		c0-0.079-0.005-0.157-0.007-0.237h6.731v15.125C68.403,68.793,68.046,69.148,67.54,69.148z"/>
</g>
</svg>
