<?xml version="1.0" encoding="utf-8"?>
<!-- Generator: Adobe Illustrator 16.0.4, SVG Export Plug-In . SVG Version: 6.00 Build 0)  -->
<!DOCTYPE svg PUBLIC "-//W3C//DTD SVG 1.1//EN" "http://www.w3.org/Graphics/SVG/1.1/DTD/svg11.dtd">
<svg version="1.1" id="Layer_1" xmlns="http://www.w3.org/2000/svg" xmlns:xlink="http://www.w3.org/1999/xlink" x="0px" y="0px"
	 width="100px" height="100px" viewBox="0 0 100 100" enable-background="new 0 0 100 100" xml:space="preserve">
<path fill="none" stroke="#58595B" stroke-miterlimit="10" d="M62.703,65.861c-0.986,0.471-2.876,0.881-4.282,0.917
	c-4.251,0.115-5.074-2.985-5.11-5.234V45.017h10.66v-8.037H53.349V23.454c0,0-7.65,0-7.776,0c-0.128,0-0.351,0.114-0.382,0.397
	c-0.454,4.14-2.393,11.404-10.446,14.308v6.857h5.373v17.349c0,5.938,4.381,14.375,15.947,14.177c3.901-0.066,8.234-1.7,9.192-3.108
	L62.703,65.861z"/>
<path fill="none" stroke="#58595B" stroke-miterlimit="10" d="M82.164,77.991c0,2.528-2.047,4.575-4.572,4.575H22.407
	c-2.527,0-4.574-2.047-4.574-4.575V22.009c0-2.527,2.047-4.575,4.574-4.575h55.185c2.525,0,4.572,2.048,4.572,4.575V77.991z"/>
</svg>
