<?xml version="1.0" encoding="utf-8"?>
<!-- Generator: Adobe Illustrator 16.0.4, SVG Export Plug-In . SVG Version: 6.00 Build 0)  -->
<!DOCTYPE svg PUBLIC "-//W3C//DTD SVG 1.1//EN" "http://www.w3.org/Graphics/SVG/1.1/DTD/svg11.dtd">
<svg version="1.1" id="Layer_1" xmlns="http://www.w3.org/2000/svg" xmlns:xlink="http://www.w3.org/1999/xlink" x="0px" y="0px"
	 width="100px" height="100px" viewBox="0 0 100 100" enable-background="new 0 0 100 100" xml:space="preserve">
<path fill="none" stroke="#6CBE45" stroke-miterlimit="10" d="M70.127,32.973c0,0,0.049,0.086,0.08,0.053
	c0.029-0.035,0.086-0.129,0.125-0.137c0,0,0.047-0.008,0.039,0.006c-0.006,0.012-0.006,0.012-0.074,0.133
	c0,0-0.064,0.121-0.029,0.176c0.029,0.053,0.098,0.162,0.129,0.217c0,0,0.031,0.057,1.18,0.277c1.148,0.223,2.855,0.799,2.855,1.172
	c0,0.297-1.045,0.865-1.818,1.172c0,0-0.775,0.309-0.447,1.1c0.328,0.793,0.861,2.5,1.238,4.314
	c1.168,5.613,0.58,10.941-1.273,14.693c-3.143,10.363-12.762,17.914-24.154,17.914c-10.705,0-19.83-6.68-21.666-11.383
	c0,0-1.834-4.703,0.262-3.158c2.09,1.553,7.258,3.4,12.867,3.4c3.125,0,6.109-0.594,7.492-1.119c0,0,1.383-0.523-0.123-0.412
	c-1.502,0.105-4.598-0.293-7.604-1.436C29.08,56.117,27.195,44.01,27.195,44.01c-0.756-4.844,0.332-5.174,2.414-0.736
	c0,0,2.469,5.254,9.711,8c0.189,0.07,0.387,0.119,0.482,0.145c0,0,0.102,0.031,0.037,0.006c-0.062-0.031-0.188-0.08-0.311-0.146
	c-9.555-5.096-9.877-17.352-9.877-17.352c-0.133-4.895,0.99-5.086,2.49-0.426c0,0,1.773,5.531,8.607,9.174
	c3.432,1.834,7.131,2.617,8.949,2.564c0,0,1.812-0.057,0.967-4.764c-0.846-4.709,2.348-13.164,8.193-14.385
	c2.629-0.547,5.359,0.467,6.561,1.529c0,0,1.201,1.061,1.549,1.018s1.117-0.041,1.939,0.08c3.031,0.453,5.52,1.201,5.52,1.654
	c0,0.41-1.984,1.342-3.277,1.766c0,0-1.291,0.422-1.236,0.508C69.971,32.73,70.074,32.891,70.127,32.973z M82.164,77.991
	c0,2.528-2.047,4.575-4.572,4.575H22.407c-2.527,0-4.574-2.047-4.574-4.575V22.009c0-2.527,2.047-4.575,4.574-4.575h55.185
	c2.525,0,4.572,2.048,4.572,4.575V77.991z"/>
</svg>
