<?xml version="1.0" encoding="utf-8"?>
<!-- Generator: Adobe Illustrator 16.0.4, SVG Export Plug-In . SVG Version: 6.00 Build 0)  -->
<!DOCTYPE svg PUBLIC "-//W3C//DTD SVG 1.1//EN" "http://www.w3.org/Graphics/SVG/1.1/DTD/svg11.dtd">
<svg version="1.1" id="Layer_1" xmlns="http://www.w3.org/2000/svg" xmlns:xlink="http://www.w3.org/1999/xlink" x="0px" y="0px"
	 width="170.5px" height="100.5px" viewBox="0 0 170.5 100.5" enable-background="new 0 0 170.5 100.5" xml:space="preserve">
<polygon fill="#A8A8A8" points="3.258,16.894 3.319,16.289 6.016,14.983 6.016,14.699 5.245,14.508 5.245,13.774 6.046,12.184 
	7.232,12.123 9.479,11.454 10.118,9.608 12.845,8.208 14.801,8.145 18.134,7.288 18.682,7.288 21.343,8.782 25.093,9.513 
	29.004,9.418 31.313,11.294 32.243,11.356 33.204,11.008 33.975,10.977 37.342,12.282 39.297,11.581 39.328,11.199 38.977,10.338 
	39.843,9.769 40.355,9.736 40.549,9.989 40.643,11.166 42.504,11.581 42.633,11.135 43.111,11.04 43.594,11.581 43.529,12.059 
	42.601,13.075 39.81,13.267 38.047,14.477 35.416,15.207 34.583,16.352 33.719,17.848 33.525,18.96 34.711,19.757 35.736,20.774 
	36.57,20.87 36.57,21.538 36.059,22.621 36.027,23.415 37.182,23.287 38.398,21.029 39.777,20.168 39.938,19.057 42.086,16.129 
	43.883,16.065 44.845,17.56 44.716,18.006 44.557,18.482 45.806,18.643 46.672,17.529 47.024,17.529 47.249,19.82 48.435,22.494 
	48.563,23.192 48.146,23.956 45.646,25.133 44.683,25.195 44.396,24.91 42.439,24.941 39.682,26.595 39.682,27.009 39.971,27.009 
	41.766,26.022 43.306,25.927 43.178,26.213 42.695,26.724 42.761,27.678 43.883,28.186 43.817,28.789 42.215,29.141 41.766,29.457 
	41.766,29.776 41.412,29.713 41.35,29.332 42.086,28.918 42.117,28.25 40.739,28.6 38.783,29.713 38.077,30.856 36.637,31.049 
	35.226,33.021 34.744,33.754 34.23,33.847 34.455,32.925 34.039,32.925 33.302,35.152 31.41,36.552 30.031,38.047 29.807,39.702 
	29.485,41.643 29.357,42.374 28.94,42.404 28.428,41.069 28.361,39.033 27.562,38.652 26.312,38.588 25.413,38.811 25.349,39.542 
	24.484,39.605 23.521,39.191 21.727,39.161 20.122,40.687 19.031,42.628 18.712,44.887 19.225,46.286 19.675,47.05 21.661,47.081 
	22.56,45.65 24.678,45.301 24.678,46.062 23.105,48.8 23.009,49.31 25.927,49.373 25.573,51.98 25.573,53.222 26.119,53.476 
	26.438,54.081 27.08,54.463 27.689,54.207 28.203,53.922 28.652,54.11 29.004,54.557 29.036,54.779 29.582,54.779 30.191,53.126 
	31.058,52.873 32.019,52.332 32.692,51.854 33.012,51.949 32.979,52.361 32.597,52.648 32.499,53.126 32.274,53.381 32.227,53.983 
	32.597,54.318 33.124,54.128 33.124,52.935 33.525,52.077 34.023,52.14 35.481,53.332 36.604,53.54 37.31,53.253 37.838,53.174 
	38.111,53.27 38.608,54.097 39.441,54.907 40.082,55.433 40.997,56.435 43.161,56.895 43.932,57.707 44.604,58.533 44.988,59.695 
	44.747,60.54 44.378,61.095 44.012,61.619 44.042,61.921 44.41,61.938 44.41,61.604 45.229,61.174 45.532,60.999 46.063,61.047 
	46.126,61.303 46.157,61.588 45.967,61.969 45.581,62.112 45.229,62.13 45.229,62.336 45.229,62.605 45.967,62.574 46.462,62.144 
	46.687,61.444 47.185,61.332 47.729,61.969 48.338,62.318 50.056,63.019 51.369,63.163 53.245,64.275 53.998,64.293 54.399,66.82 
	52.14,69.906 52.443,71.289 52.427,72.915 51.69,75.301 51.32,76.906 49.316,77.669 47.664,78.705 47.426,81.244 46.817,83.078 
	46.157,84.778 45.438,85.748 44.893,85.796 43.514,84.971 42.937,84.919 44.459,86.812 43.883,87.722 43.354,88.436 42.471,88.499 
	41.83,88.756 41.83,89.122 42.135,89.294 41.878,89.964 41.108,90.252 40.948,90.33 40.948,90.773 41.574,91.393 41.333,92.715 
	40.707,93.75 42.086,94.722 42.069,95.293 41.733,95.93 41.718,97.232 42.104,98.187 41.59,98.92 41.59,99.38 41.156,99.428 
	40.42,98.839 40.259,98.139 39.697,98.028 37.773,94.766 37.42,94.589 37.164,94.545 37.195,94.147 37.662,93.764 37.71,93.24 
	36.924,90.979 35.754,90.313 35.657,89.691 35.529,88.818 35.273,88.134 35.416,86.497 35.562,86.399 35.547,84.349 35.08,83.615 
	35.064,81.456 34.904,80.448 34.76,79.402 34.614,78.163 34.503,76.921 34.407,75.873 34.104,74.79 33.83,74.313 32.517,73.165 
	31.777,72.562 30.353,71.021 29.551,69.925 29.02,68.967 28.347,67.694 28.043,67.077 27.723,66.2 26.6,65.501 26.552,63.958 
	27.191,63.306 27.208,62.892 26.728,62.892 26.711,61.938 27.098,60.251 28.619,58.691 28.652,56.578 28.619,55.702 28.396,55.05 
	28.154,54.812 27.883,54.779 27.562,55.019 27.481,55.687 26.792,55.75 25.639,54.669 24.58,53.953 24.132,53.396 24.05,52.681 
	23.617,51.902 23.265,51.217 22.529,51.25 21.404,50.438 20.941,50.136 20.458,49.786 20.01,49.166 19.546,48.833 19.208,49.069 
	18.6,49.355 16.29,48.1 15.104,47.352 14.176,46.604 13.709,45.809 13.854,45.174 13.758,43.487 12.765,41.403 12.074,39.733 
	11.738,38.396 11.722,36.568 11.69,35.629 11.466,35.629 11.225,36.314 10.889,37.586 10.792,38.43 11.049,39.271 11.658,41.196 
	12.106,42.945 12.122,43.392 11.562,43.36 11.225,42.325 10.694,41.42 10.151,40.385 10.056,39.653 10.439,38.621 10.166,37.953 
	10.021,36.887 9.894,36.283 9.846,35.312 8.933,34.422 8.901,33.006 9.125,31.447 9.734,29.873 11.435,27.041 12.507,25.179 
	13.325,24.115 13.886,24.115 14.014,24.511 14.304,24.561 14.32,24.002 14.56,22.603 14.224,21.746 14.24,20.725 14.832,18.866 
	15.427,17.34 15.73,16.559 15.713,16.129 15.427,16.178 15.073,16.37 14.594,16.37 14.399,16.065 14.286,15.667 14.096,15.159 
	13.453,15.016 12.635,14.459 12.268,14.141 11.915,14.141 11.545,14.523 10.92,14.841 10.52,15 10.104,15.046 9.541,15.016 
	9.431,14.792 9.782,14.442 10.198,14.268 10.647,13.904 11.064,13.647 11.097,13.363 10.728,13.363 9.702,13.823 5.806,15.794 
	4.204,16.606 3.61,16.894 "/>
<polygon fill="#A8A8A8" points="1.281,17.872 1.281,16.79 2.47,16.382 3.302,16.923 3.353,17.601 2.677,17.872 "/>
<polygon fill="#A8A8A8" points="12.886,22.586 12.78,21.715 13.906,21.807 14.121,22.403 14.769,23.088 14.769,24.412 14.393,24.46 
	13.532,23.682 13.532,22.721 "/>
<polygon fill="#A8A8A8" points="32.582,29.828 33.024,29.865 33.612,28.716 33.906,28.678 34.274,29.098 34.606,29.062 
	34.606,28.33 33.98,27.334 32.95,27.219 32.693,26.834 32.582,25.646 31.884,24.879 30.707,25.146 28.979,26.029 29.016,26.453 
	29.605,26.644 30.635,26.412 31.479,26.719 32.252,26.988 32.288,27.562 30.635,27.679 29.974,28.178 29.569,29.175 29.016,30.402 
	29.164,31.019 30.156,30.211 30.377,29.252 31.15,28.484 31.884,28.254 32.51,28.524 "/>
<polygon fill="#A8A8A8" points="31.146,31.055 31.146,30.432 32.201,30.191 33.144,29.949 34.122,29.613 35.215,29.322 
	35.778,28.844 36.493,28.746 36.419,29.275 35.592,29.902 34.085,30.047 33.632,30.671 32.088,31.152 "/>
<polygon fill="#A8A8A8" points="45.308,26.208 47.976,24.262 48.58,24.051 48.702,24.466 48.298,25.587 48.702,26.124 48.864,27.45 
	48.662,28.611 47.612,28.031 46.842,27.575 45.63,27.575 45.308,26.623 "/>
<polygon fill="#A8A8A8" points="57.002,2.631 57.07,3.042 55.378,4.201 53.654,4.275 51.825,4.947 49.961,7.003 49.098,7.113 
	47.822,7.226 47.305,6.592 47.234,6.069 48.166,5.172 49.754,4.463 51.134,3.976 51.17,3.604 49.961,3.379 48.306,3.566 
	47.477,3.416 47.477,2.929 48.753,2.631 50.099,2.144 51.721,2.144 52.514,2.707 53.722,2.707 54.998,2.707 56.519,2.594 "/>
<polygon fill="#A8A8A8" points="39.137,15.817 38.589,15.214 38.589,14.706 40.148,13.593 40.989,13.593 41.41,13.917 41.41,14.937 
	41.748,15.399 41.792,16.047 41.241,16.142 40.864,15.399 40.189,15.26 39.768,15.493 39.642,15.908 "/>
<polygon fill="#A8A8A8" points="29.601,9.556 31.116,9.47 32.05,8.447 34.421,7.684 34.382,7.3 32.941,6.405 31.621,6.832 
	30.417,8.066 29.252,9.046 "/>
<polygon fill="#A8A8A8" points="35.246,6.688 35.246,8.012 37.725,7.918 38.785,7.635 39.493,6.642 39.179,5.649 38.548,5.604 
	37.959,6.642 37.725,6.642 37.565,6.5 37.018,5.746 36.308,5.888 "/>
<polyline fill="#A8A8A8" points="31.856,9.595 31.856,9.073 33.511,7.992 34.48,7.911 36.064,8.632 37.033,8.994 37.033,9.595 
	36.494,10.156 36.709,10.515 36.855,10.956 36.639,11.158 35.882,11.279 35.378,11.759 34.696,11.559 34.122,11.237 32.754,11.237 
	31.353,11.357 30.562,10.678 30.598,10.196 31.856,10.075 32.683,10.276 32.72,9.836 32,9.595 "/>
<polygon fill="#A8A8A8" points="37.611,8.565 39.201,7.581 40.875,7.938 40.704,8.653 40.273,9.505 39.501,10.308 38.298,10.264 
	37.611,9.549 "/>
<polygon fill="#A8A8A8" points="40.206,9.039 40.292,9.941 40.93,9.994 41.992,9.388 43.309,8.586 43.309,7.832 41.905,7.931 
	41.058,8.233 "/>
<polygon fill="#A8A8A8" points="40.251,6.694 40.504,8.25 41.105,8.149 42.358,7.295 42.409,6.645 41.808,6.145 41.056,5.942 
	40.402,6.192 "/>
<polygon fill="#A8A8A8" points="42.615,6.239 43.086,7.832 44.965,8.443 48.333,8.443 48.021,7.504 44.729,7.458 43.751,5.957 "/>
<polygon fill="#A8A8A8" points="42.071,10.383 41.932,9.448 43.811,8.167 44.96,8.2 45.584,8.234 45.688,8.545 45.55,8.858 
	45.897,9.344 47.394,9.067 47.95,9.725 49.168,10.383 49.829,11.182 49.688,11.735 49.239,12.188 49.239,12.464 51.081,13.607 
	50.976,14.127 49.098,15.237 48.542,14.926 48.125,14.197 47.916,14.265 47.848,15.341 46.839,17.247 46.454,17.385 45.794,16.867 
	44.298,15.409 42.523,15.409 42.175,15.064 43.045,14.197 43.499,14.197 44.507,14.197 46.386,12.292 46.977,11.735 46.664,11.216 
	44.819,11.007 43.289,10.764 "/>
<polygon fill="#A8A8A8" points="25.912,44.6 25.912,44.27 26.664,43.771 29.386,43.896 32.429,46.339 32.429,46.838 32.322,47.044 
	30.138,47.044 30.352,46.423 29.958,46.092 29.243,45.469 28.706,44.641 "/>
<polygon fill="#A8A8A8" points="28.877,47.117 30.715,47.043 30.6,48.4 29.452,48.4 28.821,47.945 "/>
<polyline fill="#A8A8A8" points="31.119,47.713 31.157,48.062 32.188,48.112 33.067,48.311 33.336,48.461 34.1,47.961 
	35.552,47.765 35.552,47.213 34.749,47.115 33.87,46.217 32.763,46.465 32.228,46.567 32.381,47.464 31.194,47.514 "/>
<polygon fill="#A8A8A8" points="35.803,47.284 37.102,47.204 37.646,48.181 35.803,48.511 35.123,47.938 "/>
<polyline fill="#A8A8A8" points="38.017,48.572 38.578,50.022 39.509,49.769 39.569,48.951 39.073,48.511 37.956,48.321 "/>
<polygon fill="#A8A8A8" points="38.211,49.42 39.426,49.42 39.505,51.415 38.538,51.303 38.211,50.472 "/>
<polygon fill="#A8A8A8" points="64.644,1.825 69.378,1.958 69.378,2.322 68.917,2.62 67.93,2.82 67.93,3.085 68.489,3.385 
	69.246,3.75 69.871,4.215 70.626,4.015 71.383,3.583 72.599,3.65 73.421,3.75 73.488,4.148 72.928,4.248 71.613,4.778 71.415,5.21 
	70.101,5.941 68.885,6.903 68.917,7.866 69.97,8.463 69.97,8.796 69.246,9.792 68.687,10.355 68.128,10.355 67.865,10.091 
	67.306,10.355 67.34,10.921 67.964,11.484 67.964,11.816 67.306,11.883 66.944,11.616 66.682,11.616 66.682,12.083 67.471,12.414 
	67.996,12.48 67.798,13.111 66.352,13.211 64.084,13.544 61.554,14.539 59.383,15.236 56.459,18.922 55.832,19.252 54.946,18.357 
	53.926,17.759 53.926,15.071 55.34,13.111 56.293,11.419 55.669,9.991 55.272,8.033 54.124,7.136 53.203,7.167 52.415,7.167 
	52.315,6.307 53.007,5.808 53.4,5.908 54.354,5.908 54.814,5.542 54.814,4.845 60.173,2.588 61.093,2.52 61.916,3.053 63.986,2.953 
	"/>
<polygon fill="#A8A8A8" points="65.681,14.667 66.215,14.063 66.787,14.021 67.246,14.884 67.818,14.884 68.581,14.495 
	70.03,14.238 70.526,15.011 70.296,16.175 69.191,16.993 67.398,16.908 66.253,16.519 66.253,15.916 65.833,15.701 "/>
<polygon fill="#A8A8A8" points="69.946,25.489 70.312,24.797 69.946,24.59 70.267,23.775 71.088,22.548 72.142,22.139 
	73.103,22.139 73.605,22.264 73.055,23.326 72.553,24.428 71.455,25.655 71.043,25.612 70.722,25.369 70.312,25.489 "/>
<polygon fill="#A8A8A8" points="74.549,19.559 74.549,19.85 74.316,20.142 74.938,20.394 75.212,20.904 74.549,21.231 
	74.628,21.741 75.133,22.541 75.562,23.521 76.032,24.358 76.889,24.468 76.848,25.013 76.305,25.703 75.057,26.031 73.497,26.248 
	72.249,26.502 72.326,26.067 73.224,25.812 73.224,25.449 72.951,25.123 73.34,24.285 74.236,23.705 74.275,22.831 73.69,22.686 
	72.793,21.776 72.793,20.613 73.34,19.633 "/>
<polygon fill="#A8A8A8" points="70.083,34.854 70.083,31.35 70.177,30.617 70.91,30.394 72.021,30.394 73.104,30.65 73.644,30.744 
	74.281,30.394 74.124,29.916 74.441,29.375 74.378,28.291 73.678,27.846 73.041,27.526 72.817,27.334 72.755,26.891 73.9,26.891 
	74.027,26.379 73.805,26.094 74.312,26.061 74.6,26.476 75.204,26.476 76.414,25.201 76.891,24.979 77.21,24.5 77.56,24.277 
	77.687,24.724 77.91,24.692 77.878,23.705 78.545,23.513 79.404,23.257 79.595,22.525 79.531,21.441 79.47,20.869 79.978,20.518 
	80.455,20.421 80.612,20.996 80.612,21.695 80.296,22.046 80.296,22.652 80.742,22.842 81.6,22.938 82.204,22.908 82.937,22.652 
	83.541,22.588 84.305,22.558 84.782,22.715 85.099,22.652 85.321,21.824 85.672,20.963 85.959,20.548 86.373,20.581 86.531,20.741 
	87.009,20.548 87.009,20.136 86.816,19.403 87.963,19.274 88.536,19.274 89.204,18.924 88.949,18.51 88.727,18.446 88.153,18.479 
	87.677,18.637 87.104,18.924 86.34,18.893 85.514,17.269 85.514,16.757 86.213,16.088 86.755,15.453 86.755,14.655 86.436,14.655 
	85.992,14.463 85.418,15.068 84.878,15.738 84.845,16.187 84.21,16.6 83.698,17.682 84.018,18.479 84.018,19.084 83.51,19.944 
	83.16,20.806 83.16,21.188 82.841,21.538 82.458,21.761 82.268,22.11 81.695,22.143 81.538,21.475 81.346,20.836 80.963,20.518 
	80.963,19.817 80.742,19.879 80.742,19.403 80.169,19.722 79.851,19.786 79.628,20.103 78.928,20.136 78.545,19.625 78.545,17.811 
	79.404,17.205 80.169,16.472 81.695,15.038 82.81,13.923 84.271,12.521 86.723,10.865 87.804,10.865 88.822,11.341 89.427,11.629 
	91.083,12.267 92.513,13.254 92.926,13.254 93.213,13.701 93.471,13.828 93.471,14.368 93.213,14.688 92.543,14.721 91.783,14.336 
	91.083,14.083 90.351,13.858 90.317,14.498 90.795,14.878 91.367,15.197 92.226,16.088 92.801,16.088 93.883,14.975 94.229,14.878 
	94.804,14.368 94.93,14.591 95.44,14.625 95.44,14.018 95.121,13.731 95.121,13.286 94.737,13.062 94.737,12.488 95.121,12.488 
	95.82,12.936 95.854,13.604 96.141,13.636 97.22,13.351 98.495,12.839 99.511,12.521 101.102,12.077 102.693,11.946 103.525,12.458 
	104.188,12.393 104.188,11.98 103.681,11.277 103.268,11.182 103.238,10.577 104.188,9.622 104.351,9.333 105.146,9.271 
	105.305,9.525 105.242,10.322 106.767,12.361 106.767,13.094 106.195,13.381 106.005,13.763 106.8,13.763 107.342,13.286 
	107.371,12.361 108.199,12.361 108.55,12.267 108.486,11.916 107.312,11.565 106.451,10.96 106.038,10.067 107.945,8.985 
	108.74,8.316 109.823,7.423 112.527,6.564 113.609,6.339 117.779,6.308 118.413,6.5 118.255,7.138 117.362,8.348 117.426,8.475 
	117.742,8.505 119.274,7.773 121.058,7.678 127.135,8.729 127.835,8.856 129.359,8.729 129.581,8.125 129.9,7.616 130.854,7.678 
	133.399,8.283 135.819,8.188 137.536,8.125 139.415,8.697 140.976,8.667 142.722,7.87 144.25,7.901 147.907,8.316 150.423,9.017 
	151.822,9.333 152.521,10.003 152.521,10.322 151.951,10.322 151.186,10.1 150.582,10.1 150.198,10.132 149.853,10.003 
	149.531,10.1 149.499,10.928 150.519,11.341 151.406,11.565 151.79,11.853 151.693,12.331 150.678,13.858 150.678,14.145 
	149.277,14.273 148.578,14.721 148.928,15.325 150.136,16.503 151.252,18.255 151.76,19.849 151.76,20.869 151.378,20.836 
	150.744,20.103 149.661,18.988 148.228,17.746 147.146,17.045 147.179,16.122 147.621,15.483 147.433,14.433 146.954,13.574 
	146.637,13.541 146.287,14.018 146.065,14.018 145.713,13.763 145.175,13.858 145.079,14.721 145.459,15.515 144.792,16.058 
	143.613,16.249 142.53,16.312 141.447,16.375 140.431,16.662 140.177,16.95 140.21,19.181 141.035,20.071 141.447,20.103 
	141.609,19.879 142.242,19.879 142.979,20.486 144.025,21.761 144.82,23.162 145.33,24.467 145.683,26.222 145.713,27.908 
	144.187,28.418 143.9,29.758 143.775,30.902 144.441,31.955 145.33,33.196 145.521,33.516 145.521,34.026 144.917,34.504 
	144.38,34.789 144.346,34.217 143.775,33.229 143.297,32.369 142.597,31.859 141.609,30.871 141.355,30.871 140.748,31.541 
	140.21,31.317 140.21,30.713 140.367,30.459 139.73,30.394 138.744,31.414 138.715,31.955 139.348,32.561 140.688,32.656 
	141.355,32.847 141.26,33.293 140.91,33.453 140.976,34.217 142.242,36.287 142.884,37.627 142.501,37.85 142.913,38.199 
	143.326,38.646 143.326,41.035 142.66,41.928 140.938,43.648 139.443,44.635 138.905,45.463 138.489,45.463 138.269,44.923 
	137.822,44.572 137.22,44.857 136.52,46.548 136.678,47.217 138.11,48.521 139.098,49.638 139.156,51.772 138.715,52.567 
	138.235,53.175 137.568,53.747 137.281,54.257 136.865,54.288 136.836,53.717 136.582,53.237 136.105,52.951 135.532,52.408 
	135.466,51.772 134.958,51.581 134.482,51.262 134.291,50.85 133.624,50.85 133.912,52.505 133.912,53.811 134.516,55.115 
	135.087,56.011 135.787,57.062 136.262,58.144 136.645,58.845 136.485,59.323 136.073,59.355 135.503,58.748 135.216,58.748 
	134.195,56.52 133.687,55.818 132.796,54.895 132.763,52.599 132.638,51.038 132.158,49.606 131.588,48.203 131.267,48.3 
	130.826,48.841 130.279,49.032 129.805,48.808 129.997,47.406 128.851,46.133 128.247,45.591 128.151,45.081 128.117,44.188 
	127.418,44.188 126.78,45.05 126.271,44.985 126.052,44.668 125.447,44.953 124.873,46.196 124.078,47.247 123.345,48.172 
	122.266,49.733 121.85,51.836 121.625,53.302 121.212,55.149 120.77,55.085 120.292,54.83 119.717,53.364 118.987,51.994 
	117.713,49.129 117.234,47.184 117.108,45.178 116.567,45.178 116.476,46.101 116.122,46.229 115.548,45.908 114.597,44.923 
	114.276,44.35 113.96,43.807 113.227,43.106 109.378,43.075 108.675,42.852 107.85,42.532 107.85,41.896 107.371,41.545 
	106.672,41.641 106.292,41.99 105.271,41.99 104.793,41.514 103.681,40.463 103.077,39.823 102.377,39.889 101.994,40.335 
	102.089,40.652 102.855,41.321 103.238,42.056 103.617,42.214 103.714,42.691 104.033,42.787 104.509,42.532 104.793,42.818 
	104.793,43.68 105.242,43.775 106.101,43.869 106.451,43.394 106.862,42.725 107.467,42.725 107.437,43.521 107.562,44.03 
	108.07,44.254 108.74,44.381 109.091,44.572 109.315,44.953 108.712,46.802 107.85,47.918 106.959,48.745 106.324,49.129 
	105.176,49.892 104.351,50.721 103.555,51.262 101.327,51.772 100.661,51.932 99.989,50.85 99.703,50.273 99.419,48.236 
	97.795,46.037 95.379,42.214 94.709,40.463 94.392,40.812 94.199,40.747 94.171,40.559 93.529,40.524 93.691,41.132 94.042,42.15 
	95.25,44.477 96.27,46.101 96.3,47.217 97.637,48.587 97.957,50.02 98.336,50.242 99.261,51.197 100.119,52.123 100.086,53.461 
	100.627,53.523 101.867,53.205 103.872,52.536 104.926,52.378 104.983,52.887 103.109,57.475 101.485,59.642 99.548,61.647 
	98.049,63.496 97.924,65.758 98.624,70.09 98.686,71.27 97.383,72.671 95.982,73.851 94.804,74.84 95.121,76.365 95.092,77.96 
	93.626,78.919 93.626,79.427 92.543,81.5 91.018,83.247 89.841,84.174 88.631,84.332 87.072,84.716 86.34,85.32 85.895,85.254 
	85.705,84.907 84.812,84.27 84.687,82.643 83.19,79.966 82.841,77.547 82.617,76.365 81.377,73.597 81.408,71.015 82.554,68.783 
	82.046,65.663 81.153,63.782 79.531,61.33 79.816,60.056 80.201,58.972 80.263,58.176 79.374,58.048 78.387,58.048 77.337,56.551 
	76.254,56.678 73.836,57.316 70.812,58.271 69.637,58.048 66.996,55.214 65.087,52.855 64.449,51.453 64.449,49.926 64.863,48.361 
	64.833,46.705 64.99,45.4 66.551,42.278 67.378,41.321 67.919,41.321 69.191,39.793 69.381,38.742 69.605,38.199 70.653,37.467 
	71.037,36.957 71.672,35.937 72.087,35.937 72.69,36.256 73.424,36.225 75.204,35.556 76.669,35.236 77.527,35.047 78.387,34.824 
	79.628,34.824 81.059,34.918 80.996,35.683 80.646,36.606 80.772,36.99 81.377,37.53 82.077,37.787 83.127,37.914 83.445,38.01 
	83.668,38.807 84.464,39.251 85.705,39.474 86.182,39.474 86.244,39.027 86.023,39.027 86.055,38.453 86.723,38.072 87.709,37.85 
	88.25,38.264 88.949,38.772 89.903,39.378 90.764,39.378 91.336,39.061 92.292,38.868 92.734,38.9 93.309,38.965 93.596,39.156 
	93.945,38.549 94.171,37.881 94.458,36.926 94.458,36.383 94.458,35.619 94.679,35.459 94.679,35.174 93.434,35.27 92.543,35.236 
	91.525,35.365 90.444,35.396 90.001,34.951 89.714,33.897 89.427,32.847 90.001,32.847 90.351,32.498 90.637,32.307 91.083,32.307 
	91.812,32.179 92.13,31.892 92.513,31.637 92.895,31.287 93.722,31.287 94.229,31.605 94.996,31.732 95.537,31.859 96.141,31.955 
	97.162,31.922 97.128,31.287 97.287,30.967 96.937,30.65 96.554,30.65 96.079,30.267 95.725,29.947 95.059,29.565 94.774,29.246 
	94.871,28.738 95.312,28.291 95.633,28.1 95.633,27.814 95.25,27.719 94.966,27.846 93.626,28.516 94.009,28.896 94.009,29.312 
	93.375,29.693 92.959,29.693 92.543,29.278 92.259,28.354 92.101,28.1 91.718,28.228 90.922,28.58 90.51,29.758 90.062,30.586 
	90.062,31.445 90.317,31.922 89.585,32.592 89.141,32.592 88.727,32.307 87.869,32.498 87.709,32.974 87.614,33.74 87.614,34.09 
	87.614,35.301 86.882,35.429 86.404,34.981 86.404,34.09 86.786,33.996 86.244,33.707 85.895,33.168 85.481,32.211 84.94,31.479 
	84.24,31.031 83.254,30.106 82.649,29.852 82.3,29.471 82.108,29.15 81.759,29.15 81.632,29.662 81.949,29.98 82.3,30.617 
	82.396,30.967 83.096,31.317 83.698,31.541 83.698,31.987 84.433,32.465 84.845,32.879 85.067,33.357 84.845,33.357 84.56,33.071 
	84.337,33.071 84.24,34.186 84.083,34.439 83.795,34.439 83.732,33.549 83.318,33.039 82.81,32.498 82.268,32.084 81.6,32.019 
	81.153,31.764 80.551,30.777 80.328,30.267 79.882,29.916 79.436,30.106 78.735,30.871 78.133,30.998 77.812,30.65 77.018,30.998 
	76.859,31.637 75.237,33.006 74.6,34.377 73.867,35.588 73.424,35.556 72.849,35.301 72.341,35.429 71.609,35.556 70.94,35.236 
	70.496,35.143 "/>
<polygon fill="#A8A8A8" points="80.29,29.895 79.324,30.833 79.46,32.004 79.46,32.41 80.498,32.41 80.774,32.059 80.774,30.948 "/>
<polygon fill="#A8A8A8" points="79.275,32.425 79.816,32.052 80.764,31.891 80.83,32.32 80.49,33.115 80.764,33.279 80.356,34.023 
	79.816,34.13 79.479,33.865 79.205,33.011 "/>
<polygon fill="#A8A8A8" points="81.494,34.109 81.589,34.436 82.506,35.15 83.232,35.865 84.102,35.753 84.196,34.602 
	83.713,33.998 82.941,33.998 "/>
<polygon fill="#A8A8A8" points="87.534,36.088 87.534,35.566 88.397,36.088 90.069,36.01 90.213,36.536 89.352,37.205 
	88.826,36.684 88.254,36.459 "/>
<polygon fill="#A8A8A8" points="92.391,36.806 92.971,35.836 94.535,35.324 94.692,35.951 94.167,36.691 93.284,37.261 
	92.759,37.316 "/>
<polygon fill="#A8A8A8" points="97.13,9.284 96.804,11.187 98.499,11.504 98.912,11.821 100.359,11.774 100.359,11.412 
	99.285,11.142 99.036,10.778 98.662,9.195 "/>
<polygon fill="#A8A8A8" points="97.476,9.718 98.662,9.677 99.279,9.059 99.505,9.059 100.199,8.481 100.853,8.481 102.198,7.408 
	102.233,6.333 101.888,6.292 100.58,7.613 99.893,7.613 98.894,7.53 98.436,8.11 98.088,8.686 97.592,8.77 "/>
<polygon fill="#A8A8A8" points="142.647,19.762 142.758,19.406 143.235,19.441 143.603,19.799 144.268,20.729 145,21.481 
	145.371,21.481 146.663,22.841 147.213,23.129 147.141,23.415 146.952,23.808 147.474,24.703 147.912,25.098 148.395,25.455 
	148.395,25.957 148.062,25.957 148.062,26.135 147.652,26.135 147.174,25.024 146.514,24.631 145.998,23.916 145.111,22.878 
	144.156,21.84 143.271,20.406 "/>
<polygon fill="#A8A8A8" points="147.389,26.56 147.469,26.146 148.119,25.854 148.607,26.102 149.184,26.102 150.038,26.271 
	150.406,26.437 150.979,26.936 150.979,27.642 150.487,28.184 150.326,28.601 149.793,28.686 149.387,28.394 148.976,28.394 
	148.938,29.226 148.285,29.226 147.918,28.686 147.673,28.184 147.795,27.686 147.997,27.31 147.918,27.018 "/>
<polygon fill="#A8A8A8" points="148.816,28.853 149.417,28.815 150.088,29.389 150.833,30.535 151.282,31.93 151.614,32.859 
	151.434,34.184 150.458,34.291 149.9,33.754 148.855,33.754 147.85,34.328 147.814,35.293 147.142,35.578 146.468,35.472 
	146.394,35.006 147.063,34.219 148.635,33.11 148.67,32.215 149.006,32.215 149.567,32.432 149.9,31.356 149.378,30.928 
	148.968,29.674 "/>
<polyline fill="#A8A8A8" points="146.298,35.943 147.005,35.987 147.092,36.391 147.331,37.2 147.657,37.694 148.32,37.647 
	148.788,36.932 148.18,36.166 147.614,35.092 146.815,35 146.341,35.135 146.2,35.765 "/>
<polygon fill="#A8A8A8" points="147.894,35.202 149.059,35.078 149.638,34.7 150.452,33.822 149.812,33.51 148.647,33.762 
	148.068,34.262 "/>
<polygon fill="#A8A8A8" points="128.037,20.318 128.474,19.912 128.744,20.318 128.688,22.221 128.309,23.125 127.71,23.714 
	126.895,23.895 126.895,23.353 127.71,22.719 128.145,21.723 "/>
<polygon fill="#A8A8A8" points="103.118,28.666 102.752,28.666 102.641,29.086 102.196,29.328 101.863,29.574 101.975,29.889 
	102.419,30.203 103.303,31.353 103.303,32.435 103.93,32.924 104.446,33.656 104.702,34.599 105.074,35.053 105.035,35.401 
	104.374,35.785 103.854,35.785 102.529,35.086 101.68,34.879 101.68,33.728 102.119,32.539 101.129,31.528 99.613,29.994 
	99.574,28.981 100.607,28.178 102.086,27.726 102.641,27.549 103.152,27.654 103.414,27.97 103.375,28.388 "/>
<polygon fill="#A8A8A8" points="106.614,27.438 107.69,27.438 107.881,27.736 108.064,29.279 107.556,30.178 106.804,30.391 
	105.917,30.391 105.636,29.408 105.684,28.424 106.197,27.908 "/>
<polygon fill="#A8A8A8" points="113.165,28.025 112.762,28.123 112.845,28.699 113.207,28.845 113.527,29.277 113.846,29.328 
	113.967,28.699 113.967,28.217 115.088,28.17 115.968,28.072 116.728,27.786 116.728,27.303 116.126,27.303 115.811,27.543 
	115.366,27.398 114.81,27.158 114.407,26.965 113.884,26.965 113.484,27.35 "/>
<polygon fill="#A8A8A8" points="93.38,60.367 94.525,59.979 95.119,60.021 95.851,60.239 95.809,60.584 95.438,61.145 
	94.938,61.792 94.938,62.869 94.021,62.954 93.199,62.266 "/>
<polygon fill="#A8A8A8" points="91.884,63.271 91.822,65.189 92.832,66.596 93.485,66.638 93.485,65.741 92.654,64.635 
	92.654,63.783 92.42,63.187 "/>
<polygon fill="#A8A8A8" points="94.161,66.898 95.013,66.727 95.086,67.676 95.433,69.659 95.723,71.128 95.013,70.958 
	94.508,70.438 94.367,69.359 94.442,67.931 "/>
<polygon fill="#A8A8A8" points="100.249,74.4 100.288,73.472 100.029,73.367 100.434,71.945 101.516,71.184 102.149,70.735 
	102.709,69.906 104.122,68.488 104.415,68.416 104.458,69.453 104.493,71.601 103.079,75.201 102.222,78.142 100.809,78.591 
	100.029,78.622 99.431,77.412 99.357,76.235 "/>
<polygon fill="#A8A8A8" points="106.365,74.525 106.489,75.479 107.189,75.964 108.008,75.964 108.132,75.344 107.189,74.525 "/>
<polygon fill="#A8A8A8" points="108.21,73.89 108.829,73.89 109.082,74.708 108.565,75.393 107.683,75.321 "/>
<polygon fill="#A8A8A8" points="143.707,41.339 144.564,41.167 144.984,42.281 144.984,42.795 145.417,44.427 144.664,44.427 
	143.707,43.741 143.28,42.711 "/>
<polygon fill="#A8A8A8" points="144.142,46.168 145.295,46.095 146.12,47.063 145.624,48.255 146.12,49.672 147.272,49.97 
	148.255,50.716 148.426,51.239 147.764,51.239 146.776,50.343 145.462,50.418 144.309,48.928 144.142,48.181 144.471,47.808 
	144.309,46.765 "/>
<polygon fill="#A8A8A8" points="122.082,52.819 123.112,54.345 123.951,55.242 123.393,56.498 121.985,56.856 121.329,55.688 
	121.52,54.345 121.8,53.269 "/>
<polygon fill="#A8A8A8" points="131.353,56.135 133.697,58.029 135.832,60.275 137.184,61.749 138.034,62.732 137.891,63.784 
	137.891,64.625 136.969,64.836 135.405,63.364 133.627,60.558 132.278,58.591 131.207,57.048 130.784,57.048 130.714,56.416 "/>
<polygon fill="#A8A8A8" points="136.076,65.244 136.457,64.484 137.679,64.062 138.6,64.484 140.432,64.736 141.504,65.244 
	142.727,66.342 143.036,67.438 142.266,67.355 141.504,66.848 140.432,66.765 139.441,66.342 137.603,65.836 136.988,65.244 "/>
<polyline fill="#A8A8A8" points="145.773,51.923 145.502,52.971 144.689,54.136 144.002,54.136 144.067,53.25 144.754,52.585 
	145.026,51.923 145.707,51.757 "/>
<polygon fill="#A8A8A8" points="146.488,51.127 147.854,51.336 147.854,51.973 147.199,52.89 146.411,53.103 146.194,52.044 "/>
<polygon fill="#A8A8A8" points="145.606,54.309 146.034,53.688 146.565,53.378 146.938,53.378 147.309,53.225 147.627,52.604 
	148.217,52.604 148.422,53.172 148.851,53.945 147.845,55.496 146.834,55.546 146.777,54.669 146.617,54.464 145.823,54.515 "/>
<polygon fill="#A8A8A8" points="144.659,55.192 145.094,55.564 145.398,55.938 145.796,56.476 145.052,57.097 144.832,58.174 
	145.355,58.836 145.661,59.748 144.879,60.493 144.18,61.985 143.573,63.477 143.133,63.808 142.305,63.808 139.955,62.771 
	139.473,61.363 139.168,59.997 139.168,59.251 139.519,59.251 141.476,58.051 142.702,56.683 143.353,55.855 143.573,55.15 "/>
<polygon fill="#A8A8A8" points="151.075,58.257 151.563,58.848 151.563,60.294 151.147,61.098 150.632,61.098 150.044,60.347 
	149.973,59.491 150.116,58.635 150.782,58.15 "/>
<polygon fill="#A8A8A8" points="149.052,59.068 149.37,59.023 149.414,59.33 149.052,59.725 148.14,59.767 146.269,59.897 
	146.038,61.299 146.998,60.861 147.772,60.467 148.414,60.556 148.365,60.904 147.909,60.949 146.998,61.604 146.906,62.218 
	147.592,63.092 147.772,63.705 147.406,64.318 146.538,64.537 146.493,63.924 146.406,62.567 145.901,62.567 145.72,63.354 
	145.945,64.756 145.856,64.974 145.22,64.974 145.22,63.705 144.853,62.918 144.853,61.518 145.538,59.68 145.945,59.11 
	146.998,59.11 147.132,59.419 148.096,59.419 "/>
<polygon fill="#A8A8A8" points="142.317,67.377 142.833,66.457 143.479,66.04 145.097,66.04 145.228,66.794 144.638,67.462 "/>
<polygon fill="#A8A8A8" points="145.079,66.545 145.079,67.146 145.558,67.615 146.722,67.547 147.84,66.545 147.896,65.814 
	147.469,65.814 146.671,66.413 "/>
<polygon fill="#A8A8A8" points="147.302,67.568 147.302,68.531 148.018,68.408 148.685,67.869 149.865,67.147 150.223,66.967 
	150.223,66.304 149.76,66.304 148.685,66.725 148.018,66.967 147.809,67.448 "/>
<polygon fill="#A8A8A8" points="150.354,62.009 151.515,62.163 152.502,62.777 152.562,63.47 151.334,63.627 150.413,63.085 "/>
<polygon fill="#A8A8A8" points="152.07,60.943 152.72,62.566 153.701,62.774 154.842,63.816 155.94,64.565 156.229,65.066 
	156.27,66.356 157.333,67.188 158.395,67.438 159.043,67.771 159.941,66.647 160.389,66.604 161.247,67.646 161.694,68.521 
	162.597,68.937 163.491,68.98 163.613,68.438 162.717,67.147 162.186,66.273 162.022,65.855 162.186,65.274 160.674,63.983 
	159.328,62.942 158.351,62.566 157.25,62.068 155.738,61.775 154.842,62.358 154.104,62.441 154.152,61.943 154.152,61.318 
	153.985,61.026 153.372,60.735 152.842,60.527 152.514,60.61 "/>
<polygon fill="#A8A8A8" points="161.797,65.689 164.229,65.689 164.865,64.799 164.865,63.128 164.44,63.185 164.332,63.854 
	164.013,64.464 164.013,64.853 163.695,64.853 163.223,64.464 162.905,64.464 162.746,64.799 162.27,64.909 161.899,65.243 "/>
<polygon fill="#A8A8A8" points="158.797,68.225 159.149,68.225 159.267,71.21 159.576,74.072 160.825,77.252 161.529,81.06 
	160.59,83.337 158.486,86.752 155.755,89.698 155.172,90.011 154.352,90.167 153.689,90.719 153.024,90.993 152.518,90.872 
	152.518,90.444 151.935,90.444 151.503,91.031 150.996,90.636 150.334,89.614 150.104,88.4 149.785,87.262 150.606,86.554 
	150.648,86.166 150.216,86.166 149.358,86.596 149.202,87.105 148.813,87.262 148.733,86.516 148.771,85.34 148.307,84.871 
	144.912,84.984 142.303,85.496 139.918,86.554 139.022,86.714 138.436,86.752 137.815,85.93 138.67,82.944 139.178,79.686 
	139.449,76.783 141.908,75.485 144.054,75.094 146.902,72.463 148.696,70.852 149.592,70.813 149.592,71.403 150.724,71.403 
	150.334,70.932 150.413,70.422 151.075,70.186 152.01,69.01 152.479,68.419 153.024,68.419 153.493,68.85 154.703,69.047 
	154.9,69.519 154.197,71.323 154.272,72.032 154.703,72.505 155.914,73.719 156.614,73.601 157.628,71.598 157.904,69.991 
	158.29,68.772 "/>
<polygon fill="#A8A8A8" points="150.713,91.209 151.26,91.104 151.7,91.53 152.443,91.261 152.891,91.261 153.234,91.317 
	153.38,92.175 152.443,93.024 152.199,93.564 151.557,94.156 150.713,94.261 149.975,94.156 149.975,93.024 150.415,91.748 
	150.464,91.104 "/>
<polygon fill="#A8A8A8" points="167.784,87.786 168.152,88.292 168.432,90.12 168.432,91.128 169.458,91.311 169.458,91.949 
	168.525,91.905 167.598,92.544 166.578,93.645 165.885,94.56 165.138,94.421 165.236,93.556 165.561,92.411 166.443,91.993 
	167.136,91.079 167.415,89.708 167.55,88.292 "/>
<polygon fill="#A8A8A8" points="164.963,92.779 165.516,93.463 165.557,94.228 164.62,94.591 163.049,95.131 161.855,96.132 
	161.179,96.627 160.668,97.396 160.114,97.711 159.009,97.761 158.497,97.667 158.365,96.764 159.009,96.308 160.581,95.768 
	161.559,94.907 162.879,94.319 163.898,93.144 "/>
<circle fill="#3C9B10" stroke="#FFFFFF" stroke-width="0.25" stroke-miterlimit="10" cx="37.37" cy="30.391" r="2.003"/>
<circle fill="#3C9B10" stroke="#FFFFFF" stroke-width="0.25" stroke-miterlimit="10" cx="24.913" cy="50.021" r="2.003"/>
<circle fill="#3C9B10" stroke="#FFFFFF" stroke-width="0.25" stroke-miterlimit="10" cx="88.534" cy="81.631" r="2.003"/>
<circle fill="#3C9B10" stroke="#FFFFFF" stroke-width="0.25" stroke-miterlimit="10" cx="33.606" cy="47.721" r="2.003"/>
<rect x="-51" y="33.01" fill="#23CC7F" width="20" height="14.033"/>
<rect x="-86.565" y="71.329" fill="none" width="104.842" height="41.693"/>
<rect x="-70.062" y="52.227" fill="none" width="78.125" height="21.454"/>
<text transform="matrix(1 0 0 1 -70.0625 60.7461)" font-family="'MyriadPro-Regular'" font-size="12">23CC7F</text>
</svg>
